<svg width="50" height="50" viewBox="0 0 50 50" fill="none" xmlns="http://www.w3.org/2000/svg">
<g id="1" clip-path="url(#clip0_0_110)">
<g id="Black">
<path id="Vector" d="M39.8144 0.107422C39.6094 0.15625 39.3262 0.253906 39.1797 0.332031C39.0332 0.410156 36.7383 2.65625 34.082 5.3125L29.248 10.1562H17.9004H6.54297V6.40625C6.54297 2.94922 6.5332 2.63672 6.36719 2.44141C6.13281 2.14844 5.50781 2.08984 4.58984 2.28516C2.46094 2.72461 0.693359 4.41406 0.146484 6.51367C-0.078125 7.36328 -0.078125 39.4141 0.146484 40.2832C0.615234 42.1191 2.05078 43.6328 3.90625 44.2676L4.54102 44.4824L16.1523 44.5117L27.7734 44.541L25.6543 46.6602C23.6816 48.6426 23.5352 48.8184 23.5352 49.1406C23.5352 49.3359 23.6133 49.5898 23.7207 49.7168L23.9062 49.9512H36.748C49.2383 49.9512 49.5898 49.9414 49.7949 49.7656L50 49.5801V36.6992C50 23.9551 50 23.8281 49.8047 23.6328C49.6777 23.5059 49.4824 23.4375 49.248 23.4375C48.9258 23.4375 48.7891 23.5449 47.7344 24.5801L46.582 25.7227V18.1836V10.6348L46.3379 10.4004L46.1035 10.1562H43.1934H40.2832L42.4023 8.02734C43.5644 6.86523 44.5898 5.75195 44.6875 5.56641C44.9414 5.06836 44.9219 4.07227 44.6582 3.56445C44.375 3.03711 41.7383 0.439453 41.3086 0.263672C40.8203 0.0585938 40.2441 0 39.8144 0.107422ZM42.0801 3.06641C43.623 4.60938 43.6133 4.58008 42.5 5.69336L41.6992 6.49414L40.0684 4.86328L38.4277 3.22266L39.1113 2.5293C39.9219 1.69922 40.2637 1.52344 40.625 1.70898C40.7617 1.78711 41.416 2.39258 42.0801 3.06641ZM4.98047 14.8926C4.98047 23.0176 5.00977 26.0352 5.08789 26.2109C5.25391 26.5625 5.76172 26.7188 6.13281 26.5234C6.28906 26.4453 6.44531 26.2988 6.48437 26.2207C6.51367 26.1328 6.54297 22.832 6.54297 18.8867V11.7188H17.1094H27.6758L25.6055 13.7988C23.6621 15.752 23.5352 15.8984 23.5352 16.2402C23.5352 16.7188 23.8086 16.9922 24.2871 16.9922C24.6387 16.9922 24.8437 16.8066 29.7852 11.8652L34.9121 6.73828L36.5527 8.37891L38.1836 10.0098L30.6348 17.5586L23.0957 25.0977L21.4648 23.4668L19.8242 21.8262L21.3379 20.3027C22.7441 18.8965 22.8516 18.7598 22.8516 18.4277C22.8516 17.9492 22.5781 17.6758 22.0996 17.6758C21.7676 17.6758 21.6211 17.793 19.8633 19.541L17.9883 21.4062L16.7383 24.9609L15.4883 28.5156H14.1113C12.8418 28.5156 12.7148 28.5352 12.5488 28.7109C12.2949 28.9941 12.3047 29.541 12.5781 29.8145L12.8027 30.0293H23.3008H33.8086L33.9941 29.7949C34.209 29.5312 34.2383 29.0234 34.043 28.75C33.9062 28.5742 33.6816 28.5645 26.543 28.5156L19.1895 28.4668L21.2891 27.7441L23.3887 27.0117L31.0547 19.3652L38.7207 11.7188H41.875H45.0195V19.502V27.2949L39.6973 32.6172C36.4844 35.8301 34.375 38.0176 34.3652 38.1348C34.3359 38.5547 34.3945 38.7305 34.6289 38.9453C35.166 39.4238 34.8926 39.668 41.9141 32.6465L48.4375 26.123V29.2773V32.4219H47.6562C46.9434 32.4219 46.8457 32.4512 46.6309 32.666C46.3672 32.9199 46.3281 33.1641 46.4941 33.5254C46.6504 33.8672 46.9727 33.9844 47.7539 33.9844H48.4375V35V36.0156L47.6465 36.0547C46.9238 36.084 46.8359 36.1133 46.6211 36.3574C46.3379 36.6895 46.3184 37.002 46.5918 37.3438C46.7773 37.5781 46.8457 37.5977 47.6172 37.5977H48.4375V38.6719V39.7461H47.7539C47.3828 39.7461 46.9727 39.7949 46.8359 39.8535C46.3477 40.0781 46.2793 40.8594 46.709 41.1621C46.8555 41.2598 47.168 41.3086 47.6758 41.3086H48.4375V42.3828V43.457H47.6562C46.9434 43.457 46.8457 43.4863 46.6309 43.7012C46.3672 43.9551 46.3281 44.1992 46.4941 44.5605C46.6504 44.9023 46.9727 45.0195 47.7539 45.0195H48.4375V46.7285V48.4375H37.2852H26.123L29.9121 44.6484C33.5156 41.0449 33.6914 40.8496 33.6914 40.5078C33.6914 40.0781 33.3398 39.7461 32.8809 39.7461C32.6367 39.7461 32.3437 40 30.957 41.3574L29.3262 42.9785L17.0801 42.9395C3.63281 42.9102 4.50195 42.9492 3.50586 42.334C2.90039 41.9629 2.55859 41.6309 2.19727 41.0645C1.69922 40.293 1.5332 39.6484 1.58203 38.7598C1.69922 36.8066 3.25195 35.2246 5.37109 34.9219C6.62109 34.7461 6.54297 34.9707 6.54297 31.4648C6.54297 28.5352 6.54297 28.4766 6.32812 28.252C6.03516 27.9395 5.53711 27.9492 5.22461 28.2715L4.98047 28.5059V30.9375V33.3691L4.33594 33.5254C3.53516 33.7305 2.8418 34.0723 2.11914 34.6289L1.5625 35.0684V21.1914C1.5625 5.74219 1.51367 6.80664 2.23633 5.69336C2.64648 5.05859 3.22266 4.54102 3.90625 4.19922C4.30664 3.99414 4.7168 3.83789 4.91211 3.81836C4.95117 3.80859 4.98047 8.79883 4.98047 14.8926ZM38.9648 6.00586L40.5762 7.61719L39.9414 8.25195L39.3066 8.88672L37.6758 7.25586L36.0352 5.61523L36.6406 5.00977C36.9727 4.66797 37.2754 4.39453 37.3047 4.39453C37.334 4.39453 38.0762 5.11719 38.9648 6.00586ZM20.3613 24.6094C21.0547 25.3027 21.6016 25.8984 21.5723 25.918C21.543 25.9473 21.1035 26.1133 20.5859 26.2988L19.6387 26.6309L18.9746 25.957L18.3105 25.293L18.6523 24.3164C18.8379 23.7793 19.0137 23.3398 19.043 23.3398C19.0723 23.3398 19.668 23.9062 20.3613 24.6094Z" fill="currentColor"/>
<path id="Vector_2" d="M43.6036 35.2637C43.2911 35.4395 35.4493 43.2812 35.2931 43.5742C35.1075 43.9355 35.1173 44.1699 35.3614 44.4727L35.5568 44.7266H39.9318H44.3068L44.5118 44.502C44.7267 44.2773 44.7267 44.2578 44.7267 39.9707C44.7267 36.0156 44.7169 35.6543 44.5607 35.459C44.3458 35.2148 43.8673 35.1172 43.6036 35.2637ZM43.1642 40.5273V43.1641H40.5079H37.8419L40.4786 40.5273C41.9239 39.0723 43.1251 37.8906 43.1349 37.8906C43.1544 37.8906 43.1642 39.0723 43.1642 40.5273Z" fill="currentColor"/>
</g>
</g>
<defs>
<clipPath id="clip0_0_110">
<rect width="50" height="50" fill="white"/>
</clipPath>
</defs>
</svg>
