<svg width="50" height="50" viewBox="0 0 50 50" fill="none" xmlns="http://www.w3.org/2000/svg">
<g id="2" clip-path="url(#clip0_0_114)">
<g id="Black">
<path id="Vector" d="M33.4766 0.15625C33.1836 0.3125 32.9102 0.751953 32.9102 1.06445C32.9102 1.26953 32.9004 1.26953 22.2656 1.28906L11.6211 1.31836L11.3086 1.64062L10.9863 1.95312V4.49219V7.03125L11.2891 7.32422C11.6992 7.74414 12.0801 7.80273 14.043 7.8125H15.7227V9.0332V10.2539L14.3848 11.6699L13.0566 13.0859H12.5684C12.0215 13.0859 11.6211 13.2812 11.3867 13.6719C11.2598 13.9062 11.2305 14.2676 11.2305 15.9863C11.2305 18.2227 11.2598 18.3594 11.8066 18.7207L12.1387 18.9453H16.4746C21.2598 18.9453 21.3086 18.9355 21.6797 18.3398C21.8652 18.0371 21.875 17.8906 21.8555 15.8984L21.8262 13.7695L21.5137 13.457C21.25 13.1934 21.1133 13.1445 20.6055 13.1055L20.0195 13.0664L18.6523 11.6211L17.2852 10.1758V8.99414V7.8125H25.0879H32.8906L32.9395 8.08594C33.0859 8.79883 33.623 9.08203 34.8438 9.08203H35.5469V23.6328V38.1836H34.3555C32.959 38.1836 32.5488 38.2812 32.0703 38.6914C31.4551 39.2383 31.4453 39.2676 31.4453 42.1875V44.8242H30.8789C29.9707 44.8242 29.3457 45.0586 28.7988 45.6055C28.1641 46.2402 27.998 46.8066 28.0469 48.252L28.0762 49.3359L28.4375 49.668L28.8086 50H38.916C48.1445 50 49.0527 49.9902 49.2773 49.8438C49.7168 49.5508 49.8047 49.2285 49.8047 47.9785C49.8047 46.9727 49.7754 46.7578 49.5703 46.3379C49.1309 45.3809 48.1836 44.8242 47.0117 44.8242H46.4941L46.4648 42.1484L46.4355 39.4727L46.1426 39.0527C45.6445 38.3496 45.3027 38.2422 43.584 38.2031L42.0898 38.1641V23.623V9.08203H42.8027C44.0039 9.08203 44.5508 8.78906 44.6973 8.08594L44.7461 7.82227L46.8164 7.79297C49.9219 7.74414 49.8438 7.83203 49.8828 4.6875C49.9219 2.17773 49.8633 1.85547 49.3262 1.49414C49.0039 1.2793 48.9258 1.26953 46.8848 1.26953H44.7656L44.6484 0.830078C44.5605 0.507812 44.4531 0.341797 44.209 0.195312C43.9062 0.00976562 43.7109 0 38.8184 0C34.5215 0.00976562 33.7012 0.0292969 33.4766 0.15625ZM43.1641 4.49219V7.51953H38.8184H34.4727V4.49219V1.46484H38.8184H43.1641V4.49219ZM14.5996 4.53125L16.3574 6.24023H14.4336L12.5 6.25V4.54102C12.5 2.96875 12.5098 2.83203 12.6758 2.83203C12.7734 2.83203 13.6328 3.60352 14.5996 4.53125ZM19.873 4.3457C19.0137 5.17578 18.291 5.84961 18.2617 5.85938C18.2324 5.85938 17.5293 5.17578 16.6992 4.3457L15.1855 2.83203H18.3105H21.4355L19.873 4.3457ZM30.127 4.33594L28.5645 5.83984L28.0273 5.37109C27.7344 5.10742 27.0312 4.43359 26.4648 3.86719L25.4395 2.83203H28.5645L31.6895 2.8418L30.127 4.33594ZM48.3398 3.96484V5.09766L47.7832 4.60938C47.4707 4.33594 46.9336 3.82812 46.582 3.47656L45.957 2.83203H47.1484H48.3398V3.96484ZM25.4395 5.06836L26.6113 6.25H23.3984H20.1855L21.7871 4.69727L23.3887 3.1543L23.8281 3.52539C24.0723 3.7207 24.7949 4.42383 25.4395 5.06836ZM32.9102 5.07812V6.25H31.6895H30.4785L31.6699 5.07812C32.3242 4.43359 32.8711 3.90625 32.8906 3.90625C32.9004 3.90625 32.9102 4.43359 32.9102 5.07812ZM47.1582 6.2207C47.1777 6.24023 46.6406 6.25 45.9668 6.25H44.7266V5.05859V3.87695L45.9277 5.0293C46.582 5.67383 47.1387 6.20117 47.1582 6.2207ZM40.5273 10.2734C40.5273 11.2695 40.5078 11.4453 40.4004 11.3281C40.3223 11.25 39.8145 10.7129 39.2578 10.127L38.252 9.08203H39.3848H40.5273V10.2734ZM40.1367 13.3887C40.1367 13.418 39.4531 14.1406 38.6328 15L37.1191 16.5527V13.3789V10.2051L38.623 11.7676C39.4531 12.627 40.127 13.3496 40.1367 13.3887ZM16.5918 13.0664C15.9375 13.0762 15.3809 13.0664 15.3516 13.0371C15.3223 13.0078 15.5762 12.6953 15.9277 12.3438L16.5527 11.709L17.168 12.373L17.7832 13.0371L16.5918 13.0664ZM20.3125 16.0156V17.3828H16.5527H12.793V16.0156V14.6484H16.5527H20.3125V16.0156ZM40.5273 18.5352V21.6406L38.9648 20.0781L37.4023 18.5059L38.9453 16.9629C39.7852 16.123 40.4883 15.4297 40.498 15.4297C40.5176 15.4297 40.5273 16.8262 40.5273 18.5352ZM40.1367 23.6328C40.1367 23.6621 39.4531 24.3848 38.623 25.2441L37.1191 26.8066V23.6328V20.459L38.623 22.0215C39.4531 22.8809 40.1367 23.6035 40.1367 23.6328ZM40.5273 28.7305V31.8848L38.9648 30.3223L37.4023 28.7695L38.9453 27.1875C39.7852 26.3184 40.4883 25.6055 40.5078 25.5957C40.5176 25.5957 40.5273 27.002 40.5273 28.7305ZM40.1367 33.877C40.127 33.9062 39.4531 34.6387 38.623 35.498L37.1191 37.0605V33.8867V30.7129L38.623 32.2656C39.4531 33.125 40.1367 33.8477 40.1367 33.877ZM40.5273 37.0117V38.1836H39.3945H38.2617L39.375 37.0117C39.9805 36.3672 40.4883 35.8398 40.5078 35.8398C40.5176 35.8398 40.5273 36.3672 40.5273 37.0117ZM44.7656 39.9023C44.9023 40.0293 44.9219 40.4004 44.9219 42.4414V44.8242H42.6855C40.5762 44.8242 40.4395 44.834 40.1953 45.0293C39.8633 45.293 39.8438 45.8301 40.1562 46.1621L40.3613 46.3867H43.8672C46.7871 46.3867 47.4219 46.416 47.6562 46.5332C48.125 46.7773 48.2422 47.041 48.2422 47.8223V48.5352H38.916H29.5898V47.9004C29.5898 47.5195 29.6484 47.1387 29.7363 46.9727C30.0293 46.3965 30.1172 46.3867 33.9453 46.3867C37.3926 46.3867 37.4414 46.3867 37.666 46.1719C37.9883 45.8691 37.9785 45.293 37.6367 45.0293C37.3926 44.834 37.2559 44.8242 35.1953 44.8242H33.0078V42.4023C33.0078 40.6445 33.0371 39.9512 33.125 39.8633C33.2129 39.7754 34.6387 39.7461 38.9258 39.7461C43.9648 39.7461 44.6289 39.7656 44.7656 39.9023Z" fill="currentColor"/>
<path id="Vector_2" d="M0.673796 16.1426C0.48825 16.2695 0.292937 16.5137 0.224578 16.6992C0.0683277 17.1582 0.0487964 48.5938 0.205046 49.1602C0.26364 49.3652 0.410125 49.6387 0.537078 49.7656L0.771453 50H8.96481C17.08 50 17.1679 50 17.4121 49.7949C17.8613 49.4531 17.8808 49.1602 17.8515 44.8438L17.8222 40.8008L17.5879 40.6152C17.2754 40.3613 16.8359 40.3809 16.5527 40.6738L16.3086 40.9082V44.7266V48.5352H8.98434H1.66012V33.0078V17.4805H4.93161H8.20309V18.3594V19.2383H6.8945C6.17184 19.2383 5.50778 19.2676 5.41989 19.2969C5.17575 19.3945 4.96091 19.9023 5.02927 20.2246C5.14645 20.7324 5.37106 20.8008 6.85544 20.8008H8.20309V22.0605V23.3203L6.9238 23.3594C5.72262 23.3887 5.63473 23.3984 5.45895 23.623C5.20505 23.9355 5.21481 24.4238 5.49802 24.6875C5.70309 24.8828 5.83005 24.9023 6.96286 24.9023H8.20309V28.2715V31.6504L8.44723 31.8848L8.68161 32.1289H12.5H16.3086V35.1367V38.1543L16.5332 38.3594C16.8457 38.6523 17.3242 38.6426 17.6367 38.3301L17.8808 38.0859L17.8515 34.6191L17.8222 31.1523L17.5488 30.8887L17.2851 30.6152L15.5273 30.5859L13.7695 30.5566V28.7598V26.9629L15.5859 26.9336L17.4023 26.9043L17.6367 26.6309C17.9199 26.2988 17.9394 25.9863 17.666 25.6445L17.4707 25.3906H15.6152H13.7695V24.1211C13.7695 22.9785 13.75 22.832 13.5742 22.6562C13.3203 22.4023 12.7929 22.4023 12.4902 22.6465C12.2656 22.8223 12.2558 22.9102 12.2168 24.1113L12.1875 25.3906H10.9765H9.76559V21.0449C9.76559 17.8906 9.7363 16.6406 9.64841 16.4551C9.41403 15.9277 9.33591 15.918 4.99997 15.918H1.00583L0.673796 16.1426ZM12.207 28.7598V30.5664H10.9863H9.76559V28.7598V26.9531H10.9863H12.207V28.7598Z" fill="currentColor"/>
<path id="Vector_3" d="M4.11127 34.3066C3.44721 34.541 3.36909 34.7656 3.33979 36.6504C3.30073 38.5058 3.37885 38.9355 3.77924 39.248C4.02338 39.4531 4.1308 39.4531 8.97455 39.4531C14.4042 39.4531 14.1894 39.4726 14.5019 38.8672C14.6191 38.6426 14.6484 38.1933 14.6484 36.8359C14.6484 35.1758 14.6386 35.0683 14.4238 34.7558C14.2968 34.5703 14.0527 34.375 13.8671 34.3066C13.3886 34.1406 4.58002 34.1406 4.11127 34.3066ZM8.20307 36.8164V37.8906H6.54291H4.88276V36.8164V35.7422H6.54291H8.20307V36.8164ZM13.0859 36.8164V37.8906H11.4257H9.76557V36.8164V35.7422H11.4257H13.0859V36.8164Z" fill="currentColor"/>
<path id="Vector_4" d="M3.90625 41.748C3.42773 42.002 3.36914 42.2559 3.36914 44.248C3.36914 45.957 3.37891 46.0938 3.57422 46.3574C3.96484 46.875 3.89648 46.875 8.96484 46.875C14.2188 46.875 14.1895 46.875 14.4922 46.2402C14.707 45.8008 14.7168 42.7344 14.5117 42.2363C14.2383 41.5918 14.3164 41.6016 8.96484 41.6016C5.05859 41.6113 4.10156 41.6309 3.90625 41.748ZM8.20312 44.2383V45.3125H6.54297H4.88281V44.2383V43.1641H6.54297H8.20312V44.2383ZM13.0859 44.2383V45.3125H11.4258H9.76562V44.2383V43.1641H11.4258H13.0859V44.2383Z" fill="currentColor"/>
</g>
</g>
<defs>
<clipPath id="clip0_0_114">
<rect width="50" height="50" fill="white"/>
</clipPath>
</defs>
</svg>
