<svg width="50" height="50" viewBox="0 0 50 50" fill="none" xmlns="http://www.w3.org/2000/svg">
<g id="3">
<g id="Black">
<path id="Vector" d="M29.2188 4.74609C28.9355 4.88281 28.623 5.11719 28.5254 5.26367C28.3789 5.46875 28.1738 5.56641 27.5977 5.70312C25.5957 6.17188 23.7891 7.54883 22.7539 9.4043C22.4805 9.89258 22.4219 9.95117 22.2852 9.84375C22.1973 9.77539 21.25 8.88672 20.1758 7.88086C18.9844 6.75781 18.0469 5.95703 17.793 5.83984C17.2461 5.5957 16.4551 5.5957 15.8984 5.83984C15.6348 5.95703 14.668 6.79688 13.2324 8.14453L10.9863 10.2539L10.8887 9.89258C10.625 8.90625 10.5078 8.86719 7.96875 8.90625L5.9375 8.93555L5.6543 9.25781L5.37109 9.57031V12.5781L5.36133 15.5762L2.88086 17.9004C0.146484 20.4688 0 20.6641 0 21.6406C0.00976562 23.3789 1.68945 24.3945 3.25195 23.6133C3.4668 23.5059 4.00391 23.0664 4.45312 22.6367L5.27344 21.8457V24.4531C5.27344 26.9238 5.2832 27.0605 5.46875 27.2461C5.75195 27.5293 6.26953 27.5391 6.57227 27.2754C6.72852 27.1289 6.73828 26.8359 6.73828 23.7891L6.74805 20.459L11.7969 15.7129L16.8457 10.957L18.2129 12.2461C18.9551 12.9492 19.873 13.8086 20.2441 14.1602L20.9082 14.7949L20.957 16.5527C20.9961 17.7637 21.0547 18.4375 21.1621 18.7305C21.3574 19.2871 21.8359 19.6484 22.4609 19.707L22.9395 19.7461L23.0078 20.2051C23.252 21.8555 24.502 23.9844 25.8496 25.0293L26.3672 25.4395V26.0938V26.7578L25.6445 27.1191L24.9316 27.4707L24.6191 27.2559C24.1602 26.9238 23.6621 26.9727 22.2754 27.4805C21.6016 27.7344 21.0254 27.9297 20.9863 27.9297C20.9473 27.9297 20.8984 26.7285 20.8789 25.2637C20.8496 22.8809 20.8301 22.5684 20.6738 22.3242C20.332 21.8066 20.1074 21.7773 16.8555 21.7773C15.127 21.7773 13.7695 21.8164 13.623 21.875C13.4863 21.9238 13.2617 22.0898 13.1348 22.2266L12.8906 22.4902V27.0605V31.6406L12.5293 32.0996C11.9141 32.9102 11.3281 34.4043 11.3281 35.1758V35.4492H9.0918H6.8457L6.81641 33.1543C6.78711 30.9375 6.77734 30.8594 6.57227 30.6445C6.26953 30.3418 5.70312 30.3516 5.45898 30.6543C5.29297 30.8594 5.27344 31.084 5.27344 33.3398C5.27344 36.084 5.3125 36.2695 5.94727 36.6895C6.26953 36.9043 6.34766 36.9141 8.75 36.9141C11.084 36.9141 11.2305 36.9238 11.2305 37.0898C11.2305 37.1875 11.1621 38.7402 11.0742 40.5273C10.9375 43.5156 10.9375 43.8184 11.084 44.1992C11.2793 44.707 11.6406 45.0879 12.1582 45.3223C12.5293 45.498 13.291 45.5078 30.4199 45.5078C42.4219 45.5078 48.4082 45.4688 48.6523 45.4102C49.1211 45.2734 49.5703 44.8926 49.8047 44.4238C49.9512 44.1406 50 43.8477 50 43.2129C50 42.4512 49.9805 42.3535 49.7559 42.1387C49.4629 41.8457 49.1309 41.8262 48.7891 42.0996C48.5547 42.2852 48.5352 42.3633 48.5352 42.9688C48.5352 43.9844 48.623 43.9453 46.084 43.9453H43.9453V37.4609V30.9668L44.4629 31.1426C45.9375 31.6602 46.8359 32.3535 47.5293 33.4961C47.9492 34.1992 48.1445 35.0098 48.2031 36.3086C48.2715 38.1641 48.3301 38.5645 48.5449 38.7793C48.8184 39.0527 49.3262 39.0234 49.6094 38.7207L49.8438 38.4766L49.7266 36.543C49.6094 34.4043 49.4727 33.8281 48.8867 32.7734C48.2129 31.5625 47.041 30.5273 45.7812 30.0098C45.459 29.8828 43.4668 29.1602 41.3477 28.418C37.1582 26.9336 36.8457 26.8652 36.3574 27.2852L36.084 27.5195L35.332 27.1387L34.5703 26.7578V26.0938L34.5801 25.4395L35.0684 25.0586C36.4648 23.9844 37.7441 21.8555 37.9785 20.2148L38.0371 19.7754L38.4961 19.7266C39.2773 19.6289 39.8633 19.0332 39.9805 18.2129C40.0195 17.9688 40.0488 17.3438 40.0488 16.8164C40.0488 16.2988 40.0781 15.5176 40.0977 15.0781C40.166 14.1016 40.0098 13.6621 39.502 13.3691C39.1797 13.1738 39.1602 13.1348 39.1602 12.666C39.1504 11.0645 38.3691 9.22852 37.1094 7.88086C36.0742 6.76758 34.7852 6.01562 33.3984 5.70312C32.8516 5.57617 32.6562 5.47852 32.2852 5.12695C31.7676 4.62891 31.3672 4.49219 30.4102 4.49219C29.873 4.49219 29.6191 4.54102 29.2188 4.74609ZM31.1914 6.21094C31.4258 6.44531 31.4648 6.71875 31.4258 7.98828C31.3867 9.43359 31.3086 9.57031 30.498 9.57031C29.6484 9.57031 29.5898 9.45312 29.5898 7.83203C29.5898 6.15234 29.6387 6.05469 30.4688 6.05469C30.8594 6.05469 31.0938 6.10352 31.1914 6.21094ZM17.9492 7.92969C18.4277 8.37891 19.5215 9.39453 20.3809 10.1953L21.9336 11.6504L21.8457 12.3926C21.7969 12.8027 21.7188 13.1738 21.6699 13.2227C21.6016 13.3008 20.9766 12.7441 17.8516 9.79492C17.3047 9.26758 17.1582 9.17969 16.8555 9.17969C16.4355 9.17969 17.1582 8.52539 8.30078 16.8848C5.15625 19.8438 2.49023 22.2949 2.36328 22.334C1.80664 22.4707 1.31836 21.9043 1.57227 21.3965C1.67969 21.1914 10 13.2715 16.084 7.59766C16.4062 7.30469 16.6797 7.12891 16.8262 7.12891C16.9922 7.12891 17.3438 7.38281 17.9492 7.92969ZM34.2871 7.65625C35.127 8.05664 36.0449 8.86719 36.6016 9.7168C37.2852 10.7324 37.5977 11.7383 37.666 13.1641C37.7246 14.1895 37.7441 14.2773 37.9688 14.4531C38.1055 14.5605 38.291 14.6484 38.3887 14.6484C38.4961 14.6484 38.5742 14.7168 38.5742 14.7949C38.5742 14.9219 37.6074 14.9414 30.4688 14.9414C23.3301 14.9414 22.3633 14.9219 22.3633 14.7949C22.3633 14.707 22.4512 14.6484 22.5977 14.6484C22.7246 14.6484 22.9297 14.5703 23.0566 14.4629C23.2617 14.2969 23.291 14.1797 23.3496 13.0762C23.4277 11.6602 23.7305 10.6641 24.3945 9.69727C25.1562 8.57422 26.6699 7.46094 27.6953 7.26562L27.998 7.20703L28.0469 8.36914C28.0859 9.27734 28.1348 9.60938 28.3008 9.91211C28.7207 10.752 29.3262 11.0645 30.4688 11.0742C31.5039 11.084 32.1191 10.8203 32.5684 10.1758C32.8516 9.76562 32.8613 9.7168 32.8906 8.44727L32.9297 7.14844L33.3301 7.27539C33.5547 7.34375 33.9844 7.51953 34.2871 7.65625ZM9.375 11.0645V11.7871L8.10547 12.9785L6.83594 14.1797V12.2656V10.3516H8.10547H9.375V11.0645ZM22.9492 17.4902C22.9492 18.1836 22.9297 18.2715 22.7832 18.2422C22.6367 18.2129 22.6074 18.0859 22.5781 17.4512C22.5488 16.748 22.5684 16.6992 22.7539 16.6992C22.9297 16.6992 22.9492 16.7578 22.9492 17.4902ZM36.5234 18.3008C36.5234 20.1074 36.3867 20.752 35.791 21.8262C34.6973 23.7793 33.0176 24.9121 30.8594 25.1562C30.0977 25.2441 28.8477 24.9805 27.9688 24.5605C26.709 23.9453 25.459 22.5586 24.8242 21.0742C24.5801 20.498 24.5703 20.3516 24.5312 18.5742L24.4922 16.6992H30.5078H36.5234V18.3008ZM38.457 17.4512C38.4277 18.0859 38.3984 18.2129 38.2617 18.2422C38.1055 18.2715 38.0859 18.1836 38.0859 17.4902C38.0859 16.7578 38.1055 16.6992 38.2812 16.6992C38.4668 16.6992 38.4863 16.748 38.457 17.4512ZM19.3164 25.8887L19.2871 28.5449L17.1875 29.2871C16.0352 29.6973 14.9512 30.1172 14.7754 30.2051C14.5996 30.293 14.4434 30.3711 14.4043 30.3711C14.375 30.3711 14.3555 28.7891 14.3555 26.8555V23.3496L15.459 23.3105C16.0547 23.3008 17.1777 23.2715 17.9492 23.2617L19.3359 23.2422L19.3164 25.8887ZM28.9551 26.5137C29.9023 26.7285 31.1133 26.7188 32.1582 26.4746C32.627 26.3574 33.0371 26.2695 33.0566 26.2695C33.0859 26.2695 33.1055 26.5332 33.1055 26.8457C33.1055 27.5684 33.3203 27.8613 34.1699 28.2715C34.502 28.4277 34.7559 28.6035 34.7363 28.6523C34.668 28.8477 33.1543 29.5801 32.373 29.7949C30.5566 30.3027 28.2812 29.9707 26.6699 28.9648L26.1426 28.6426L26.8555 28.2617C27.7051 27.8125 27.9297 27.5098 27.9297 26.7773C27.9297 26.3281 27.9492 26.2598 28.1055 26.3086C28.1934 26.3379 28.584 26.4258 28.9551 26.5137ZM23.5059 30.3223C23.8574 32.0605 24.1211 32.6758 24.7949 33.3301C25.0391 33.5742 26.2598 34.4141 27.4902 35.1855L29.7363 36.6016L29.7656 40.2734L29.7852 43.9453H24.1699H18.5547V37.1777V30.4199L20.8301 29.6191C22.0703 29.1797 23.1152 28.8184 23.1445 28.8184C23.1738 28.8086 23.3301 29.4922 23.5059 30.3223ZM40.2832 29.6777L42.4316 30.4395L42.4609 37.1973L42.4805 43.9453H36.8652H31.25L31.2695 40.2637L31.2988 36.582L33.4961 35.1953C35.8984 33.6816 36.6016 33.1055 36.9629 32.2949C37.1387 31.9141 37.793 29.1895 37.793 28.8379C37.793 28.7793 37.7637 28.7793 40.2832 29.6777ZM25.498 30.0391C26.2109 30.5273 27.2559 31.0059 28.1836 31.2695C28.8477 31.4551 29.1797 31.4941 30.5176 31.4844C32.1484 31.4844 32.6367 31.3965 33.9355 30.8789C34.3945 30.6934 35.3223 30.1758 35.8203 29.8242C35.9375 29.7363 36.0352 29.707 36.0352 29.7656C36.0352 30 35.7324 31.2695 35.6152 31.5723C35.3906 32.0996 34.9707 32.4414 32.8906 33.7402C31.7969 34.4336 30.8203 35.0488 30.7031 35.127C30.5176 35.2441 30.3125 35.1367 28.3105 33.877C25.8887 32.3535 25.8496 32.3242 25.5371 31.8262C25.3516 31.543 24.8438 29.6875 24.9512 29.6875C24.9707 29.6875 25.2148 29.8438 25.498 30.0391ZM17.0898 37.4512V43.9453H14.9023C13.0566 43.9453 12.6953 43.9258 12.5977 43.7988C12.4902 43.6719 12.4902 43.0957 12.5879 40.7422C12.8223 34.9414 12.8711 34.5703 13.4473 33.5352C13.7891 32.9297 14.4727 32.1973 15.0488 31.8262C15.4297 31.5918 16.6797 31.0449 17.0703 30.9668C17.0801 30.957 17.0898 33.877 17.0898 37.4512Z" fill="currentColor"/>
</g>
</g>
</svg>
