<svg width="50" height="50" viewBox="0 0 50 50" fill="none" xmlns="http://www.w3.org/2000/svg">
<g id="4" clip-path="url(#clip0_0_141)">
<g id="Black">
<path id="Vector" d="M24.3066 0.283203L24.0234 0.566406V5.75195V10.9375H18.8574H13.7012L13.457 11.1816C13.3203 11.3184 13.1836 11.5625 13.1445 11.7285C13.0371 12.2656 13.0762 21.8945 13.1836 22.2852C13.3984 23.0566 14.2969 23.3105 14.8535 22.7637L15.1367 22.4805V17.6855V12.8906H21.7285H28.3203V14.7852V16.6797L26.4551 16.7188L24.5898 16.748L24.3066 17.0703C23.9062 17.5098 23.9062 18.0664 24.3066 18.4668L24.5898 18.75H26.4551H28.3203V20.4492V22.1484L26.4551 22.1875L24.5898 22.2168L24.3066 22.5391C23.9062 22.9785 23.9062 23.5352 24.3066 23.9355L24.5898 24.2188H26.4551H28.3203V25.918V27.6172L26.4551 27.6562L24.5898 27.6855L24.3066 28.0078C23.9062 28.4473 23.9062 29.0039 24.3066 29.4043L24.5898 29.6875H26.4551H28.3203V31.3867V33.0859L26.4551 33.125L24.5898 33.1543L24.3066 33.4766C23.9062 33.916 23.9062 34.4727 24.3066 34.873L24.5898 35.1562H26.4551H28.3203V36.8555V38.5547L26.4551 38.5938L24.5898 38.623L24.3066 38.9453C23.9062 39.3848 23.9062 39.9414 24.3066 40.3418L24.5898 40.625H26.4551H28.3203V42.3242V44.0234L26.4551 44.0625L24.5898 44.0918L24.3066 44.4141C23.9062 44.8535 23.9062 45.4102 24.3066 45.8105L24.5898 46.0938H26.4551H28.3203V47.0703V48.0469H25.8789H23.4375V38.8281V29.6191L23.1836 29.3555L22.9199 29.1016H12.6953H2.4707L2.20703 29.3555L1.95312 29.6191V38.8281V48.0469H1.23047C0.585937 48.0469 0.488281 48.0762 0.253906 48.3008C-0.107422 48.6719 -0.107422 49.375 0.253906 49.7461L0.517578 50H25H49.4824L49.7461 49.7461C50.1074 49.375 50.1074 48.6719 49.7461 48.3008C49.5117 48.0762 49.4141 48.0469 48.7695 48.0469H48.0469V35.4102V22.7832L47.8027 22.5391C47.666 22.4023 47.4219 22.2656 47.2559 22.2266C47.0801 22.1973 45.9473 22.168 44.7168 22.168H42.4805V15.9766C42.4805 12.5781 42.4512 9.64844 42.4219 9.48242C42.3828 9.31641 42.2656 9.0918 42.1484 8.97461C42.041 8.86719 38.2227 6.80664 33.6621 4.39453C24.5508 -0.439453 24.8926 -0.292969 24.3066 0.283203ZM34.7949 7.32422L40.4199 10.3027L40.4297 16.2305V22.168H37.5586C35.9863 22.168 34.5605 22.1973 34.3848 22.2266C34.2187 22.2656 33.9746 22.4023 33.8379 22.5391L33.5937 22.7832V35.4102V48.0469H31.9824H30.3711V29.7656V11.4844L30.1074 11.2109L29.8437 10.9375H27.959H26.0742V6.82617V2.72461L27.6172 3.53516C28.4668 3.98438 31.6894 5.68359 34.7949 7.32422ZM46.0937 25.9277V27.6367H43.5156C42.0996 27.6367 40.8105 27.666 40.6348 27.6953C39.8633 27.8516 39.5508 28.8379 40.1074 29.4141L40.3711 29.6875H43.2324H46.0937V31.3965V33.1055H43.5156C42.0996 33.1055 40.8105 33.1348 40.6348 33.1641C40.1367 33.2617 39.8437 33.6426 39.8437 34.1699C39.8437 34.5508 39.8926 34.6777 40.1172 34.8926L40.3906 35.1562H43.2422H46.0937V36.8652V38.5742H43.5156C42.0996 38.5742 40.8105 38.6035 40.6348 38.6328C39.8633 38.7891 39.5508 39.7754 40.1074 40.3516L40.3711 40.625H43.2324H46.0937V42.334V44.043L44.6094 44.0527C42.8223 44.0527 42.5098 44.1406 42.2461 44.6582C42.0898 44.9805 42.0801 45.0977 42.1777 45.4102C42.3633 46.0449 42.5391 46.0938 44.4336 46.0938H46.0937V47.0703V48.0469H40.8203H35.5469V36.1328V24.2188H40.8203H46.0937V25.9277ZM21.4844 39.5508V48.0469H12.6953H3.90625V39.5508V31.0547H12.6953H21.4844V39.5508Z" fill="currentColor"/>
<path id="Vector_2" d="M32.8711 11.2891C32.6172 11.543 32.6172 11.5723 32.6172 12.9102V14.2773L32.9004 14.5605C33.125 14.7852 33.2715 14.8438 33.5938 14.8438C33.916 14.8438 34.0625 14.7852 34.2871 14.5605L34.5703 14.2773V12.9102C34.5703 11.5723 34.5703 11.543 34.3164 11.2891C34.1113 11.084 33.9648 11.0352 33.5938 11.0352C33.2227 11.0352 33.0762 11.084 32.8711 11.2891Z" fill="currentColor"/>
<path id="Vector_3" d="M36.7773 11.2891C36.5234 11.543 36.5234 11.5723 36.5234 12.9102V14.2773L36.8066 14.5605C37.0312 14.7852 37.1777 14.8438 37.5 14.8438C37.8223 14.8438 37.9688 14.7852 38.1934 14.5605L38.4766 14.2773V12.9102C38.4766 11.5723 38.4766 11.543 38.2227 11.2891C38.0176 11.084 37.8711 11.0352 37.5 11.0352C37.1289 11.0352 36.9824 11.084 36.7773 11.2891Z" fill="currentColor"/>
<path id="Vector_4" d="M33.3301 16.7676C33.2129 16.7871 33.0078 16.9238 32.8711 17.0605C32.6172 17.3047 32.6172 17.334 32.6172 18.7695C32.6172 20.1758 32.627 20.2344 32.8516 20.459C32.9785 20.5859 33.2031 20.7227 33.3398 20.7617C33.6914 20.8496 34.0527 20.7324 34.3359 20.459C34.5605 20.2344 34.5703 20.1758 34.5703 18.7695C34.5703 17.3242 34.5703 17.3047 34.3164 17.0508C34.1699 16.9141 34.0039 16.7969 33.9258 16.7969C33.8574 16.7969 33.75 16.7773 33.6719 16.7578C33.6035 16.7383 33.4473 16.748 33.3301 16.7676Z" fill="currentColor"/>
<path id="Vector_5" d="M37.2363 16.7676C37.1191 16.7871 36.9141 16.9238 36.7773 17.0605C36.5234 17.3047 36.5234 17.334 36.5234 18.7695C36.5234 20.1758 36.5332 20.2344 36.7578 20.459C37.041 20.7324 37.4023 20.8496 37.7539 20.7617C37.8906 20.7227 38.1152 20.5859 38.2422 20.459C38.4668 20.2344 38.4766 20.1758 38.4766 18.7695C38.4766 17.3242 38.4766 17.3047 38.2227 17.0508C38.0762 16.9141 37.9102 16.7969 37.832 16.7969C37.7637 16.7969 37.6562 16.7773 37.5781 16.7578C37.5098 16.7383 37.3535 16.748 37.2363 16.7676Z" fill="currentColor"/>
<path id="Vector_6" d="M38.4082 44.1602C37.6855 44.3457 37.4512 45.2734 37.9785 45.8105C38.3691 46.1914 39.0137 46.2109 39.3848 45.8496C40.1562 45.0684 39.4629 43.877 38.4082 44.1602Z" fill="currentColor"/>
<path id="Vector_7" d="M6.41599 33.1152C6.0156 33.3496 5.95701 33.6816 5.95701 35.791C5.95701 38.7207 5.81052 38.5645 8.75974 38.5742H10.9375L11.25 38.291L11.5722 38.0078L11.6015 36.0742C11.6406 33.8574 11.6113 33.6133 11.2597 33.2617L11.0058 33.0078H8.7988C7.48044 33.0078 6.52341 33.0566 6.41599 33.1152ZM9.57029 35.791V36.5234H8.78904H8.00779V35.791V35.0586H8.78904H9.57029V35.791Z" fill="currentColor"/>
<path id="Vector_8" d="M14.2383 33.252C13.9062 33.584 13.8672 33.8379 13.8672 35.7812C13.8672 37.627 13.9453 38.0762 14.3262 38.3789C14.5605 38.5645 14.707 38.5742 16.7383 38.5742C19.6875 38.5645 19.5312 38.7305 19.5312 35.6934V33.5742L19.248 33.291L18.9648 33.0078H16.7188H14.4824L14.2383 33.252ZM17.4805 35.791V36.5234H16.6992H15.918V35.791V35.0586H16.6992H17.4805V35.791Z" fill="currentColor"/>
<path id="Vector_9" d="M6.38665 40.7031C5.98626 41.0156 5.95696 41.2207 5.95696 43.3105C5.95696 46.2402 5.80071 46.084 8.79876 46.0938H11.0058L11.2499 45.8496C11.582 45.5176 11.621 45.2637 11.621 43.3105C11.621 41.3574 11.582 41.1035 11.2499 40.7715L11.0058 40.5273H8.79876C6.8554 40.5273 6.56243 40.5566 6.38665 40.7031ZM9.57024 43.3105V44.043H8.78899H8.00774V43.3105V42.5781H8.78899H9.57024V43.3105Z" fill="currentColor"/>
<path id="Vector_10" d="M14.3262 40.7227C13.9453 41.0254 13.8672 41.4746 13.8672 43.3203C13.8672 45.2637 13.9062 45.5176 14.2383 45.8496L14.4824 46.0938H16.7188H18.9648L19.248 45.8105L19.5312 45.5273V43.3301V41.1328L19.248 40.8301L18.9648 40.5273H16.7676C14.707 40.5273 14.5605 40.5371 14.3262 40.7227ZM17.4805 43.3105V44.043H16.6992H15.918V43.3105V42.5781H16.6992H17.4805V43.3105Z" fill="currentColor"/>
<path id="Vector_11" d="M13.6035 25.0977C12.8711 25.5371 13.0761 26.6992 13.9257 26.9141C14.541 27.0703 15.1367 26.5918 15.1367 25.9375C15.1269 25.0879 14.3261 24.6484 13.6035 25.0977Z" fill="currentColor"/>
</g>
</g>
<defs>
<clipPath id="clip0_0_141">
<rect width="50" height="50" fill="white"/>
</clipPath>
</defs>
</svg>
