<svg width="100" height="95" viewBox="0 0 100 95" fill="none" xmlns="http://www.w3.org/2000/svg">
<g id="&#208;&#155;&#208;&#190;&#208;&#179;&#208;&#190;">
<path id="Vector" d="M4.15419 16.5716C4.19143 18.0342 4.64173 19.2226 5.51184 20.1401C6.4192 21.0949 7.56355 21.5756 8.94151 21.5756C10.2755 21.5756 11.4029 21.0915 12.3136 20.1164C13.2277 19.1447 13.6814 17.9056 13.6814 16.399C13.6814 15.2275 13.4072 14.2254 12.8587 13.3824C12.7064 13.1488 12.5303 12.9287 12.3373 12.7188C11.4401 11.764 10.3059 11.2866 8.94151 11.2866C7.56355 11.2866 6.4192 11.7572 5.51184 12.6985C4.60449 13.6397 4.15081 14.8687 4.15081 16.3854L4.15419 16.5716ZM15.4013 9.55996C15.4894 9.64798 15.574 9.73601 15.6586 9.82743C17.2499 11.5473 18.0455 13.7548 18.0455 16.4464C18.0455 19.0432 17.2228 21.2134 15.5774 22.9604C13.932 24.7074 11.9818 25.5809 9.72698 25.5809C8.72483 25.5809 7.787 25.4014 6.92366 25.0425C6.05693 24.6837 5.19698 24.1013 4.34379 23.2888V25.1306H0V17.7769V13.23V0.963783H4.34379V9.61751C5.13265 8.82865 5.98922 8.23278 6.90673 7.84004C7.82424 7.44392 8.80947 7.24755 9.85564 7.24755C11.474 7.24755 12.9163 7.68092 14.1893 8.55103C14.6125 8.83881 15.0154 9.17399 15.4013 9.55996ZM25.9781 4.41715C25.8427 4.76249 25.6328 5.07735 25.3552 5.36175C24.8135 5.91361 24.1634 6.18785 23.405 6.18785C22.7685 6.18785 22.2099 6.00164 21.7257 5.62583C21.6174 5.54119 21.5158 5.44977 21.4143 5.3482C20.8658 4.78618 20.5915 4.10567 20.5915 3.30665C20.5915 2.53811 20.8624 1.8813 21.4075 1.33621C21.9492 0.791117 22.606 0.520264 23.3712 0.520264C24.1397 0.520264 24.7965 0.797884 25.345 1.35313C25.8935 1.90838 26.1677 2.58213 26.1677 3.37098C26.1677 3.7434 26.1034 4.09551 25.9781 4.41715ZM25.5583 25.1306H21.184V7.69446H25.5583V25.1306ZM45.7436 21.0102C44.9276 22.4424 43.8137 23.563 42.4019 24.3688C40.9901 25.1746 39.4361 25.5775 37.7365 25.5775C35.2379 25.5775 33.1049 24.6871 31.3342 22.9096C29.5669 21.1321 28.6833 18.9687 28.6833 16.4261C28.6833 13.7006 29.682 11.4322 31.6796 9.61413C33.4299 8.03303 35.4444 7.24417 37.7196 7.24417C39.365 7.24417 40.9122 7.65383 42.3579 8.47655C43.8036 9.29926 44.9344 10.4165 45.7469 11.825C46.5595 13.2368 46.9658 14.7569 46.9658 16.3922C46.9692 18.041 46.5595 19.5815 45.7436 21.0102ZM41.2237 12.7662C40.3299 11.8317 39.1889 11.3645 37.7974 11.3645C36.4398 11.3645 35.3056 11.8385 34.4016 12.7831C33.4977 13.7277 33.044 14.9398 33.044 16.4125C33.044 17.9293 33.4909 19.1583 34.3847 20.0995C35.2785 21.0407 36.4093 21.5113 37.7805 21.5113C39.1483 21.5113 40.2893 21.0373 41.2 20.0859C42.1108 19.1346 42.5644 17.9124 42.5644 16.4159C42.561 14.9161 42.1141 13.7006 41.2237 12.7662Z" fill="#77B82A"/>
<path id="Vector_2" fill-rule="evenodd" clip-rule="evenodd" d="M11.7144 55.4742V47.4333C11.7144 45.3105 11.6128 43.8716 11.4096 43.1166C11.2065 42.365 10.8612 41.803 10.3736 41.4306C9.88611 41.0581 9.28007 40.8753 8.56231 40.8753C7.63126 40.8753 6.82886 41.1834 6.16189 41.803C5.49153 42.4226 5.02769 43.2656 4.77038 44.3321C4.63496 44.8839 4.56725 46.1434 4.56725 48.1071V55.4742H0V30.0514H4.56725V38.9861C5.46783 38.2108 6.3718 37.6285 7.28254 37.2425C8.19328 36.8532 9.11417 36.6602 10.0486 36.6602C11.8701 36.6602 13.4038 37.2899 14.6497 38.5494C15.7162 39.6396 16.2511 41.241 16.2511 43.3536V55.4742H11.7144ZM24.5798 34.6796C24.0077 35.2585 23.3238 35.5463 22.5281 35.5463C21.7088 35.5463 21.0114 35.2517 20.4358 34.6626C19.8602 34.0735 19.5691 33.3558 19.5691 32.5128C19.5691 31.7036 19.8535 31.0129 20.4256 30.4373C20.9978 29.8652 21.6851 29.5774 22.4943 29.5774C23.3001 29.5774 23.9941 29.8686 24.5697 30.4543C25.1486 31.04 25.4364 31.7476 25.4364 32.5771C25.4364 33.4032 25.152 34.1006 24.5798 34.6796ZM24.7965 55.4742H20.1954V37.1308H24.7965V55.4742ZM34.1375 41.0954V55.4742H29.533V41.0954H27.1732V37.1342H29.533V30.373H34.1375V37.1342H36.8698V41.0954H34.1375ZM57.7051 47.6365H42.9199C43.1332 48.9399 43.7054 49.976 44.6297 50.7479C45.5573 51.5164 46.7389 51.9024 48.1778 51.9024C49.8978 51.9024 51.3739 51.2997 52.6097 50.0978L56.4862 51.9193C55.5213 53.2905 54.3634 54.3062 53.0126 54.963C51.6651 55.6198 50.0636 55.9482 48.2083 55.9482C45.3305 55.9482 42.9876 55.0409 41.1797 53.2262C39.3684 51.4115 38.4644 49.1397 38.4644 46.4075C38.4644 43.6075 39.365 41.285 41.1695 39.4364C42.9741 37.5878 45.2357 36.6636 47.9544 36.6636C50.8424 36.6636 53.192 37.5878 54.9999 39.4364C56.8113 41.285 57.7152 43.726 57.7152 46.763L57.7051 47.6365ZM51.3028 41.5152C50.409 40.8753 49.3696 40.5537 48.188 40.5537C46.9048 40.5537 45.7774 40.9126 44.8091 41.6337C44.1997 42.084 43.6377 42.8762 43.1197 44.0104H53.1006C52.7993 42.988 52.2 42.1585 51.3028 41.5152ZM75.5542 42.9507C74.8331 42.1991 74.1221 41.6743 73.4179 41.3832C72.7137 41.092 71.891 40.9464 70.9464 40.9464C69.2231 40.9464 67.8316 41.461 66.7685 42.4869C65.7054 43.5127 65.1738 44.8298 65.1738 46.4346C65.1738 47.9953 65.6851 49.2683 66.7109 50.257C67.7334 51.2456 69.0809 51.7399 70.7432 51.7399C72.8017 51.7399 74.4065 51.0357 75.5542 49.6306L79.1836 52.1157C77.2166 54.6752 74.4403 55.9516 70.8549 55.9516C67.6284 55.9516 65.1027 54.9969 63.2779 53.0874C61.453 51.1779 60.5389 48.9399 60.5389 46.377C60.5389 44.5995 60.9824 42.9677 61.8694 41.4712C62.7565 39.9781 63.9956 38.8033 65.5869 37.9467C67.1781 37.0935 68.9556 36.667 70.9227 36.667C72.7441 36.667 74.3794 37.0292 75.8285 37.7537C77.2775 38.4783 78.4625 39.5109 79.3868 40.8482L75.5542 42.9507ZM95.2655 55.4742V47.4333C95.2655 45.3105 95.1639 43.8716 94.9608 43.1166C94.7576 42.365 94.4123 41.803 93.9248 41.4306C93.4372 41.0581 92.8312 40.8753 92.1135 40.8753C91.179 40.8753 90.38 41.1834 89.713 41.803C89.0427 42.4226 88.5788 43.2656 88.3215 44.3321C88.1861 44.8839 88.1184 46.1434 88.1184 48.1071V55.4742H83.5478V30.0514H88.115V38.9861C89.0156 38.2108 89.9195 37.6285 90.8303 37.2425C91.741 36.8532 92.6619 36.6602 93.593 36.6602C95.4145 36.6602 96.9482 37.2899 98.1975 38.5494C99.2639 39.6396 99.7989 41.241 99.7989 43.3536V55.4742H95.2655Z" fill="#333333"/>
<path id="Vector_3" fill-rule="evenodd" clip-rule="evenodd" d="M4.38778 70.7848C4.13725 71.0862 3.78852 71.2893 3.345 71.3909C3.01998 71.4654 2.41395 71.506 1.52691 71.506H1.01906V74.7393H0.304688V67.7852H1.72666C2.5426 67.7852 3.09447 67.819 3.37886 67.8901C3.78852 67.9883 4.12032 68.188 4.38101 68.4928C4.63832 68.7975 4.77036 69.18 4.77036 69.6371C4.77036 70.1009 4.64171 70.4835 4.38778 70.7848ZM3.83592 69.0006C3.70727 68.8076 3.5346 68.6688 3.32469 68.5876C3.11139 68.5063 2.76606 68.4657 2.28191 68.4657H1.01906V70.8255L2.22774 70.839C2.71527 70.839 3.07415 70.795 3.30099 70.7104C3.52783 70.6223 3.70727 70.4835 3.83592 70.2905C3.96458 70.0976 4.02891 69.8809 4.02891 69.6439C4.02891 69.4069 3.96458 69.197 3.83592 69.0006ZM9.6457 71.2859C9.30714 71.4315 8.83653 71.506 8.23727 71.5094L10.807 74.7359H9.92333L7.35362 71.506H6.95073V74.7359H6.23635V67.7818H7.65833C8.45057 67.7818 8.98889 67.8122 9.2699 67.8766C9.6931 67.9714 10.0384 68.1745 10.3059 68.4826C10.57 68.7941 10.7054 69.1767 10.7054 69.6303C10.7054 70.0095 10.614 70.3413 10.4312 70.6291C10.2484 70.9203 9.98427 71.137 9.6457 71.2859ZM9.77097 68.9972C9.64232 68.8076 9.46965 68.6688 9.25974 68.5876C9.04983 68.5063 8.69772 68.4657 8.2068 68.4657H6.94734V70.8289L8.17972 70.839C8.65709 70.839 9.0092 70.795 9.23604 70.707C9.46627 70.6189 9.64232 70.4767 9.77097 70.2838C9.89963 70.0908 9.96396 69.8741 9.96396 69.6337C9.96734 69.4001 9.90301 69.1868 9.77097 68.9972ZM18.357 73.8489C17.6291 74.5565 16.742 74.912 15.6959 74.912C14.6362 74.912 13.7423 74.5598 13.0144 73.8522C12.2865 73.148 11.9209 72.2915 11.9209 71.2893C11.9209 70.6223 12.0868 70.0028 12.4186 69.4306C12.7503 68.8584 13.204 68.4149 13.7762 68.0899C14.3484 67.7682 14.9713 67.6057 15.6383 67.6057C16.7217 67.6057 17.6257 67.9578 18.357 68.6587C19.0849 69.3595 19.4506 70.2262 19.4506 71.2521C19.4506 72.2779 19.0849 73.1413 18.357 73.8489ZM18.313 69.759C18.0489 69.3121 17.6765 68.9566 17.1957 68.6891C16.7149 68.4217 16.2071 68.2862 15.6688 68.2862C15.1406 68.2862 14.6395 68.4217 14.1656 68.6891C13.6916 68.9566 13.3225 69.3189 13.0551 69.7725C12.7876 70.2262 12.6556 70.7307 12.6556 71.2893C12.6556 72.1154 12.9501 72.8129 13.5392 73.3816C14.1283 73.9504 14.8359 74.2348 15.6688 74.2348C16.224 74.2348 16.7353 74.1028 17.2093 73.8421C17.6799 73.5814 18.0489 73.2225 18.313 72.7688C18.5771 72.3152 18.7091 71.8107 18.7091 71.2554C18.7125 70.707 18.5804 70.2059 18.313 69.759ZM23.7639 73.9843C23.6488 74.2653 23.4558 74.4921 23.1883 74.6614C22.9209 74.8307 22.5924 74.9153 22.2132 74.9153C21.9255 74.9153 21.6411 74.8612 21.3601 74.7528C21.0791 74.6445 20.771 74.4515 20.429 74.1773L20.8082 73.6254C21.1806 73.8793 21.4921 74.0622 21.7393 74.1637C21.9018 74.2348 22.0609 74.2687 22.2166 74.2687C22.4198 74.2687 22.606 74.2077 22.7719 74.0892C22.9412 73.9707 23.0563 73.8116 23.1206 73.6119C23.1883 73.4121 23.2222 73.0295 23.2222 72.4574V67.7885H23.9365V72.4811C23.9365 73.1988 23.879 73.7033 23.7639 73.9843ZM26.3945 68.4657V70.646H29.7463V71.3265H26.3945V74.0588H29.7463V74.7393H25.6835V67.7852H29.7802V68.4657H26.3945ZM35.9827 68.6011C35.546 68.398 35.0686 68.2964 34.5472 68.2964C33.9784 68.2964 33.4502 68.4284 32.9627 68.6959C32.4785 68.9634 32.0994 69.3189 31.8319 69.7691C31.5644 70.2194 31.4324 70.7239 31.4324 71.2825C31.4324 72.1289 31.7303 72.8365 32.3296 73.4053C32.9288 73.9707 33.6805 74.2551 34.5912 74.2551C35.5934 74.2551 36.4296 73.8726 37.1034 73.1108L37.6654 73.5272C37.3099 73.9674 36.8664 74.3093 36.3314 74.5497C35.7999 74.7901 35.204 74.912 34.5472 74.912C33.2979 74.912 32.3127 74.5057 31.5881 73.6965C30.9821 73.0126 30.6808 72.1865 30.6808 71.2182C30.6808 70.1991 31.0464 69.3426 31.7811 68.6485C32.5158 67.9544 33.4333 67.6057 34.537 67.6057C35.204 67.6057 35.8066 67.7344 36.345 67.9917C36.8833 68.249 37.3234 68.6079 37.6654 69.0717L37.1034 69.4915C36.7919 69.1022 36.4195 68.8042 35.9827 68.6011ZM40.7125 68.4657V74.7393H39.9845V68.4657H38.3899V67.7852H42.3037V68.4657H40.7125Z" fill="#4F4F4F"/>
<path id="Vector_4" fill-rule="evenodd" clip-rule="evenodd" d="M4.23216 81.5375C4.3405 81.7678 4.39129 82.0183 4.39129 82.2892C4.39129 82.8376 4.19153 83.3048 3.78864 83.684C3.38575 84.0632 2.84743 84.2562 2.1703 84.2562H0.29126V77.407H1.64214C2.18384 77.407 2.60366 77.4714 2.89483 77.6C3.18599 77.7287 3.41622 77.9284 3.5855 78.1925C3.75478 78.46 3.83942 78.7545 3.83942 79.0795C3.83942 79.3843 3.76494 79.6619 3.61597 79.9124C3.467 80.163 3.25032 80.3661 2.96254 80.5185C3.31803 80.6403 3.59227 80.7825 3.78525 80.945C3.97824 81.1109 4.1272 81.3073 4.23216 81.5375ZM3.13182 79.0829C3.13182 78.7715 3.02348 78.5243 2.80341 78.3449C2.58335 78.1654 2.23462 78.0774 1.75725 78.0774H0.961619V80.2713H1.35435C1.83173 80.2713 2.18045 80.2273 2.40391 80.1393C2.62736 80.0512 2.80341 79.9124 2.93545 79.7194C3.06749 79.5265 3.13182 79.3165 3.13182 79.0829ZM3.38575 81.5071C3.18599 81.2802 2.91514 81.1245 2.56642 81.0432C2.33281 80.9891 1.92653 80.9586 1.34758 80.9586H0.961619V83.5859H1.81142C2.31249 83.5859 2.67814 83.5385 2.91176 83.4403C3.14536 83.3421 3.33158 83.1897 3.47377 82.9832C3.61597 82.7767 3.68707 82.5498 3.68707 82.3095C3.68707 82.0014 3.5855 81.7339 3.38575 81.5071ZM10.1266 83.0238C10.0081 83.3996 9.7677 83.7281 9.40882 84.0091C9.04994 84.2901 8.61658 84.4289 8.10873 84.4289C7.55687 84.4289 7.08288 84.2968 6.69014 84.0328C6.29741 83.7687 6.03333 83.42 5.8979 82.9866C5.81326 82.7191 5.77263 82.2384 5.77263 81.5443V77.4104H6.45653V81.5443C6.45653 82.0352 6.46669 82.3399 6.48362 82.4618C6.51748 82.7327 6.59535 82.9561 6.72061 83.1389C6.84588 83.3218 7.03548 83.4741 7.29279 83.596C7.5501 83.7179 7.81079 83.7788 8.07149 83.7788C8.29833 83.7788 8.51501 83.7314 8.72154 83.6366C8.93145 83.5418 9.10411 83.4064 9.24293 83.2371C9.38174 83.0678 9.48331 82.8613 9.55102 82.6176C9.59842 82.4449 9.62212 82.086 9.62212 81.5477V77.4138H10.306V81.5477C10.306 82.1537 10.2451 82.648 10.1266 83.0238ZM11.8939 84.2562V77.407H12.5778V84.2562H11.8939ZM14.1454 84.2562V77.407H14.8293V83.5926H17.4633V84.2528H14.1454V84.2562ZM23.8723 82.7259C23.5744 83.2473 23.1918 83.6333 22.7178 83.8804C22.2438 84.1276 21.5802 84.2528 20.7271 84.2528H18.5501V77.4037H19.9687C20.9911 77.4037 21.736 77.4849 22.1998 77.6508C22.8634 77.8844 23.3814 78.2873 23.7572 78.8595C24.133 79.435 24.3192 80.1189 24.3192 80.9112C24.3159 81.6019 24.1703 82.2079 23.8723 82.7259ZM23.1444 79.2353C22.8262 78.7681 22.3793 78.4464 21.8071 78.2738C21.3771 78.1451 20.6729 78.0774 19.6911 78.0774H19.2069V83.6096H19.9991C20.9437 83.6096 21.6006 83.552 21.9696 83.4335C22.4842 83.2676 22.8905 82.9629 23.185 82.5295C23.4796 82.0928 23.6286 81.5612 23.6286 80.9315C23.6218 80.2679 23.4627 79.7025 23.1444 79.2353ZM25.5448 84.2562V77.407H26.2287V84.2562H25.5448ZM33.0305 84.2562L28.5107 79.0694V84.2562H27.8031V77.407H27.952L32.5091 82.6548V77.407H33.1863V84.2562H33.0305ZM39.6732 78.2061C39.2195 78.0131 38.776 77.9149 38.3426 77.9149C37.8043 77.9149 37.2931 78.0469 36.8089 78.311C36.3248 78.5751 35.9456 78.934 35.6815 79.3843C35.414 79.8345 35.282 80.3119 35.282 80.8164C35.282 81.331 35.4208 81.8219 35.695 82.2858C35.9693 82.7496 36.3518 83.1153 36.8394 83.3793C37.3269 83.6434 37.8619 83.7754 38.4408 83.7754C39.145 83.7754 39.7409 83.5791 40.2284 83.1796C40.716 82.7801 41.0037 82.2655 41.0951 81.6323H38.9114V80.9721H41.8637C41.8569 82.0318 41.5421 82.8715 40.9225 83.4944C40.2995 84.1174 39.4667 84.4289 38.4239 84.4289C37.1576 84.4289 36.1555 83.9955 35.4174 83.1356C34.8486 82.472 34.5642 81.7034 34.5642 80.8299C34.5642 80.1833 34.7267 79.5772 35.0518 79.0186C35.3768 78.46 35.8237 78.0232 36.3925 77.7084C36.9613 77.3935 37.6012 77.2344 38.3189 77.2344C38.8979 77.2344 39.4463 77.3393 39.9576 77.5492C40.4688 77.7591 40.9699 78.0943 41.4574 78.5582L40.9259 79.0592C40.5467 78.6834 40.1269 78.399 39.6732 78.2061Z" fill="#4F4F4F"/>
<path id="Vector_5" fill-rule="evenodd" clip-rule="evenodd" d="M5.32225 87.5607C4.84826 87.3575 4.38781 87.2559 3.93751 87.2559C3.37888 87.2559 2.84733 87.3948 2.33949 87.669C1.83502 87.9432 1.44229 88.3157 1.16466 88.7863C0.887041 89.2569 0.748229 89.7512 0.748229 90.2759C0.748229 90.8109 0.890427 91.3221 1.17821 91.8029C1.46599 92.287 1.86211 92.6662 2.36996 92.9405C2.8778 93.2181 3.43305 93.3535 4.0357 93.3535C4.767 93.3535 5.38996 93.147 5.89781 92.7339C6.40566 92.3209 6.70359 91.786 6.79839 91.1257H4.52662V90.4385H7.59741C7.59063 91.5422 7.26561 92.4157 6.61557 93.0623C5.96891 93.709 5.10218 94.034 4.01538 94.034C2.69837 94.034 1.65558 93.5837 0.887041 92.6865C0.294552 91.9959 0 91.1968 0 90.2895C0 89.6157 0.169283 88.986 0.507848 88.4037C0.846413 87.8213 1.31025 87.3677 1.90274 87.0393C2.49523 86.7109 3.1622 86.5483 3.90704 86.5483C4.51308 86.5483 5.07848 86.6567 5.61341 86.8734C6.14496 87.0901 6.66635 87.4422 7.1742 87.9229L6.62234 88.4477C6.23299 88.0583 5.79624 87.7604 5.32225 87.5607ZM12.3983 90.3166C12.0597 90.4655 11.5891 90.5434 10.9932 90.5468L13.5562 93.8546H12.6759L10.1129 90.5468H9.71005V93.8546H8.99907V86.7278H10.4177C11.2099 86.7278 11.7448 86.7583 12.0258 86.826C12.449 86.9241 12.7944 87.1307 13.0585 87.4489C13.3225 87.7672 13.4546 88.1599 13.4546 88.6271C13.4546 89.0165 13.3632 89.355 13.1803 89.6496C12.9975 89.9442 12.7368 90.1642 12.3983 90.3166ZM12.5235 87.9703C12.3949 87.774 12.2256 87.6351 12.0157 87.5505C11.8058 87.4659 11.457 87.4252 10.9661 87.4252H9.71005V89.846L10.9357 89.8561C11.413 89.8561 11.7618 89.8121 11.992 89.7207C12.2188 89.6293 12.3983 89.4871 12.5269 89.2873C12.6556 89.0876 12.7199 88.8675 12.7199 88.6204C12.7199 88.3834 12.6522 88.1667 12.5235 87.9703ZM21.0858 92.9438C20.3613 93.6718 19.4743 94.034 18.4315 94.034C17.3752 94.034 16.4814 93.6718 15.7568 92.9472C15.0289 92.2227 14.6666 91.3492 14.6666 90.32C14.6666 89.6361 14.8325 88.9996 15.1643 88.4172C15.4961 87.8315 15.9464 87.3744 16.5186 87.0427C17.0908 86.7109 17.7104 86.5483 18.3739 86.5483C19.454 86.5483 20.3579 86.9072 21.0825 87.6284C21.8104 88.3495 22.1726 89.2366 22.1726 90.2895C22.176 91.3323 21.8138 92.2193 21.0858 92.9438ZM21.0418 88.7524C20.7778 88.2953 20.4087 87.9297 19.928 87.6555C19.4506 87.3812 18.9427 87.2424 18.4044 87.2424C17.8762 87.2424 17.3786 87.3812 16.9046 87.6555C16.4306 87.9297 16.0649 88.3021 15.7975 88.7659C15.5334 89.2298 15.3979 89.7512 15.3979 90.3233C15.3979 91.1698 15.6925 91.8841 16.2782 92.4699C16.8639 93.0522 17.5715 93.3433 18.401 93.3433C18.9529 93.3433 19.4675 93.2079 19.9381 92.9405C20.4087 92.673 20.7744 92.304 21.0384 91.8401C21.3025 91.3763 21.4346 90.8583 21.4346 90.2895C21.438 89.7207 21.3059 89.2095 21.0418 88.7524ZM28.1619 92.5748C28.0366 92.9675 27.7894 93.3095 27.417 93.6007C27.0446 93.8918 26.5943 94.0374 26.0628 94.0374C25.4872 94.0374 24.9963 93.8986 24.5832 93.6244C24.1736 93.3501 23.8993 92.9878 23.7605 92.5342C23.6725 92.2565 23.6285 91.7555 23.6285 91.031V86.7278H24.3395V91.031C24.3395 91.5422 24.3496 91.8604 24.3699 91.9857C24.4072 92.2667 24.4884 92.5003 24.6171 92.6899C24.7457 92.8795 24.9455 93.0386 25.213 93.1639C25.4804 93.2926 25.7513 93.3535 26.0221 93.3535C26.2591 93.3535 26.4826 93.3027 26.6993 93.2045C26.9159 93.103 27.0954 92.9641 27.241 92.7881C27.3865 92.6087 27.4915 92.3954 27.5592 92.1448C27.6066 91.962 27.6303 91.593 27.6303 91.031V86.7278H28.3413V91.031C28.3481 91.6675 28.2837 92.1821 28.1619 92.5748ZM34.1714 89.802C33.9209 90.1101 33.5721 90.3166 33.1286 90.4249C32.807 90.5028 32.2009 90.54 31.3173 90.54H30.8094V93.8546H30.0985V86.7278H31.517C32.3296 86.7278 32.8815 86.7616 33.1659 86.8327C33.5721 86.9343 33.9039 87.1408 34.1646 87.4489C34.4219 87.7604 34.5506 88.1531 34.5506 88.6237C34.5472 89.1011 34.4219 89.4939 34.1714 89.802ZM33.6195 87.9737C33.4909 87.774 33.3182 87.6351 33.1083 87.5505C32.895 87.4659 32.5497 87.4252 32.0689 87.4252H30.8094V89.8426L32.0147 89.8595C32.5023 89.8595 32.8578 89.8155 33.0846 89.7275C33.3114 89.6394 33.4875 89.4939 33.6161 89.2975C33.7448 89.0977 33.8091 88.8777 33.8091 88.6339C33.8125 88.3901 33.7482 88.1735 33.6195 87.9737Z" fill="#4F4F4F"/>
</g>
</svg>
