<svg width="50" height="50" viewBox="0 0 50 50" fill="none" xmlns="http://www.w3.org/2000/svg">
<g id="4" clip-path="url(#clip0_0_380)">
<g id="Black">
<path id="Vector" d="M0.253906 0.253918L0 0.51759V8.78907V17.0606L0.253906 17.3242L0.517578 17.5781H5.27344H10.0293L10.293 17.3242C10.5273 17.0801 10.5469 17.002 10.5469 16.25V15.4297H10.9961C11.3672 15.4297 11.582 15.5176 12.168 15.8789L12.8906 16.3281V20.5957C12.8906 24.8535 12.8906 24.8535 13.125 25.3418C13.3691 25.8789 13.8672 26.3672 14.4336 26.6309C14.7656 26.7871 15.3125 26.8067 20.3613 26.8359C23.4277 26.8555 26.123 26.8359 26.3574 26.8067C26.9531 26.7188 27.2461 26.3867 27.2461 25.7813C27.2461 25.4199 27.1973 25.2832 26.9922 25.0879L26.7383 24.8535L22.9395 24.8047L19.1309 24.7559L18.916 24.1211C18.6133 23.2324 18.2227 22.5977 17.5684 21.9629C16.9727 21.3672 15.8496 20.7422 15.2148 20.6445L14.8438 20.5762V18.9844C14.8438 18.1055 14.8633 17.3828 14.8828 17.3828C14.9023 17.3828 15.2051 17.5098 15.5469 17.6758C16.5625 18.1348 18.3496 18.7109 19.5508 18.9844C21.6992 19.4629 24.6387 19.9414 25.2051 19.9024C25.7227 19.8633 25.7715 19.8828 25.918 20.1172C25.9961 20.2637 26.377 20.6641 26.748 21.0254C27.8418 22.0606 29.1211 22.5586 30.6641 22.5586C35 22.5586 37.7832 17.959 35.7617 14.1211C34.0039 10.7715 29.4922 10 26.7383 12.5879L26.1035 13.1836L23.7988 11.9043C22.5293 11.2109 21.4062 10.5176 21.2891 10.3809C20.8887 9.86329 21.1816 9.07228 21.8555 8.88673C22.1191 8.81837 25.4492 8.79884 32.2266 8.80861L42.207 8.8379L42.373 9.37501C42.9297 11.1231 44.1504 12.3438 45.8984 12.9004L46.4355 13.0664L46.4648 16.8262L46.4844 20.5762L46.1133 20.6445C45.5371 20.7324 44.4531 21.3184 43.8477 21.8555C43.2227 22.4219 42.7148 23.2129 42.4121 24.1113L42.1973 24.7559L38.3887 24.8047L34.5898 24.8535L34.3359 25.0879C34.1309 25.2832 34.082 25.4199 34.082 25.7813C34.082 26.3867 34.375 26.7188 34.9707 26.8067C35.2051 26.8359 37.9102 26.8555 40.9668 26.8359C46.0156 26.8067 46.5625 26.7871 46.8945 26.6309C47.4609 26.3672 47.959 25.8789 48.2031 25.3418L48.4375 24.8535V16.7969C48.4375 8.90626 48.4277 8.73048 48.2324 8.30079C47.9688 7.71486 47.6074 7.34376 47.0215 7.07032L46.5332 6.83595H39.8438H33.1543L30.5664 4.834C27.666 2.59767 27.1387 2.25587 26.0254 1.87501L25.2441 1.61134L17.9004 1.58204L10.5469 1.55275V1.03517C10.5469 0.60548 10.5078 0.468761 10.293 0.253918L10.0293 1.14441e-05H5.27344H0.517578L0.253906 0.253918ZM8.59375 8.78907V15.625H5.27344H1.95312V8.78907V1.95314H5.27344H8.59375V8.78907ZM25.0977 3.75001C26.0156 4.05275 26.5625 4.38478 28.1445 5.60548L29.6875 6.78712L25.4102 6.83595C21.2109 6.88478 21.1328 6.88478 20.7324 7.10939C20.0879 7.45118 19.6582 7.88087 19.3652 8.47657C19.0039 9.21876 18.9844 10.332 19.3164 11.0938C19.6973 11.9238 20.166 12.2754 23.0469 13.8672C24.5215 14.6875 25.8301 15.4395 25.9473 15.5469C26.2402 15.8203 26.3965 16.3379 26.3281 16.7578C26.2402 17.1875 25.6934 17.7442 25.2637 17.8223C24.8145 17.9102 20.5762 17.1582 19.0918 16.7285C16.9824 16.1231 15 15.2246 13.2031 14.0625L12.2949 13.4766H11.416H10.5469V8.48634V3.50587L17.5586 3.53517C24.0039 3.57423 24.5996 3.584 25.0977 3.75001ZM46.2598 9.00392C46.3867 9.13087 46.4355 9.39454 46.4648 10.0586L46.5137 10.9473L46.1328 10.791C45.3906 10.4883 44.7852 9.88282 44.4824 9.14064L44.3262 8.76954L45.2051 8.79884C45.8789 8.82814 46.123 8.87696 46.2598 9.00392ZM31.7188 13.2617C32.7637 13.5938 33.6328 14.3652 34.1016 15.3906C34.2871 15.7813 34.3262 16.0352 34.3262 16.7969C34.3262 17.5977 34.2871 17.8027 34.0625 18.2813C33.7012 19.0625 33.0176 19.7656 32.2363 20.1465C31.6504 20.4297 31.5137 20.459 30.6641 20.459C29.8145 20.459 29.6777 20.4297 29.0918 20.1465C28.7012 19.9512 28.2617 19.6289 27.998 19.3457L27.5488 18.8574L27.8809 18.3106C28.5059 17.2656 28.5645 16.0742 28.0469 15.0195L27.7734 14.4531L28.0664 14.1797C29.1309 13.1934 30.4297 12.8613 31.7188 13.2617ZM15.7617 23.1348C16.2305 23.457 16.6406 23.9551 16.8555 24.4629L16.9922 24.8047H16.1719C15 24.8047 14.9023 24.707 14.8633 23.5449L14.8242 22.6563L15.0879 22.7539C15.2246 22.8125 15.5371 22.9785 15.7617 23.1348ZM46.4355 24.1992C46.3477 24.6875 46.0547 24.8145 45.1367 24.7852L44.3457 24.7559L44.5312 24.3457C44.7656 23.8184 45.4297 23.1543 45.9961 22.8711L46.4355 22.6563L46.4648 23.2617C46.4844 23.6035 46.4648 24.0234 46.4355 24.1992Z" fill="#77B82A"/>
<path id="Vector_2" d="M40.1367 16.084C39.5801 16.5821 39.7754 17.5684 40.4687 17.7539C41.2305 17.9688 41.7969 17.5586 41.7969 16.7969C41.7969 16.3867 41.7578 16.2891 41.4941 16.0742C41.0742 15.7227 40.5371 15.7227 40.1367 16.084Z" fill="#77B82A"/>
<path id="Vector_3" d="M29.9902 25.0586C29.7363 25.2735 29.6875 25.3809 29.6875 25.7422C29.6875 26.2891 29.9023 26.6309 30.332 26.7481C30.7715 26.8652 31.2891 26.7188 31.4844 26.416C31.5723 26.2891 31.6406 25.9863 31.6406 25.7422C31.6406 25.3809 31.5918 25.2735 31.3379 25.0586C30.9277 24.7168 30.4004 24.7168 29.9902 25.0586Z" fill="#77B82A"/>
<path id="Vector_4" d="M34.4629 32.334C32.0117 32.5391 29.8438 33.7012 28.0664 35.752L27.2266 36.7188H24.375C21.4062 36.7188 20.6445 36.7871 19.9902 37.1289C19.4434 37.4023 18.8281 38.0078 18.5352 38.5449C18.2324 39.1016 18.0273 40.0977 18.125 40.5957C18.1836 40.918 18.1738 40.9473 18.0078 40.8789C17.2656 40.6055 16.5332 39.9707 13.7695 37.2461C10.2148 33.7305 10.2246 33.7402 8.69141 33.7402C7.80273 33.7402 7.59766 33.7695 7.17773 33.9844C6.55273 34.2871 5.86914 34.9707 5.56641 35.5957C5.35156 36.0254 5.32227 36.2207 5.32227 37.1094C5.32227 38.6426 5.33203 38.6523 8.68164 42.0215C11.6016 44.9609 12.5781 45.8594 13.7207 46.6211C15.1562 47.5879 17.1289 48.3691 18.9355 48.6719C19.7363 48.8086 21.1133 48.8281 29.6582 48.8281H39.4531V49.1602C39.4531 49.3848 39.5312 49.5703 39.707 49.7461L39.9707 50H44.7266H49.4824L49.7461 49.7461L50 49.4824V41.2109V32.9395L49.7461 32.6758L49.4824 32.4219H44.7266H39.9707L39.707 32.6758C39.5703 32.8223 39.4531 32.998 39.4531 33.0762C39.4531 33.1836 39.4043 33.1836 39.1699 33.0566C38.6621 32.8027 37.1973 32.4219 36.4844 32.3633C36.1035 32.334 35.6836 32.3047 35.5469 32.2852C35.4102 32.2754 34.9219 32.2949 34.4629 32.334ZM37.207 34.5898C37.6074 34.6875 38.2715 34.9316 38.6719 35.1367L39.4043 35.5078L39.4336 41.2012L39.4531 46.8848L29.7168 46.8457C23.0469 46.8164 19.7949 46.7676 19.4238 46.6895C17.5391 46.3184 15.7227 45.5371 14.3457 44.5215C13.5156 43.9062 8.39844 38.9258 7.70508 38.0566C7.39258 37.666 7.32422 37.5 7.32422 37.1484C7.32422 36.2891 7.86133 35.7422 8.70117 35.7422C9.01367 35.7422 9.23828 35.8105 9.43359 35.957C9.58984 36.0645 10.9668 37.4023 12.5 38.9258C15.4102 41.8066 16.0156 42.2949 17.3828 42.8809C17.7539 43.0371 18.4473 43.2617 18.916 43.3887C19.7656 43.6035 19.873 43.6035 26.2012 43.6035H32.6367L32.9199 43.2812C33.0957 43.0762 33.2031 42.8613 33.2031 42.666C33.2031 42.3047 32.9785 41.8457 32.7441 41.7383C32.6465 41.6895 29.9902 41.6309 26.8359 41.6016C21.2402 41.5527 21.1035 41.5527 20.8398 41.3477C19.9414 40.6836 19.9512 39.6289 20.8691 39.0039C21.123 38.8281 21.3965 38.8184 24.5117 38.7891C26.3672 38.7793 27.9785 38.75 28.0957 38.7207C28.2129 38.6914 28.7012 38.2031 29.1992 37.627C30.293 36.3379 31.0645 35.6641 32.0312 35.166C33.6816 34.3066 35.3516 34.1211 37.207 34.5898ZM48.0469 41.2109V48.0469H44.7266H41.4062V41.2109V34.375H44.7266H48.0469V41.2109Z" fill="#77B82A"/>
</g>
</g>
<defs>
<clipPath id="clip0_0_380">
<rect width="50" height="50" fill="white"/>
</clipPath>
</defs>
</svg>
