<svg width="50" height="50" viewBox="0 0 50 50" fill="none" xmlns="http://www.w3.org/2000/svg">
<g id="3" clip-path="url(#clip0_0_371)">
<g id="Black">
<path id="Vector" d="M38.4766 0.0585938C37.7539 0.195312 36.6504 0.517578 36.3086 0.693359C35.8203 0.947266 35.5859 1.43555 35.7422 1.88477C36.0059 2.65625 36.4453 2.76367 37.7149 2.37305C38.5352 2.12891 38.7598 2.09961 40.0391 2.09961C41.5527 2.09961 42.041 2.1875 43.2129 2.70508C44.961 3.4668 46.5039 4.99023 47.2656 6.69922C48.1543 8.67188 48.1836 11.0156 47.3438 13.0566C47.1875 13.4473 47.0215 13.7695 46.9922 13.7695C46.9531 13.7695 46.8457 13.584 46.7383 13.3691C46.6406 13.1445 46.2988 12.6953 45.9863 12.3633C45.4004 11.7383 44.7852 11.3379 44.0625 11.123C43.7402 11.0254 43.6621 10.9668 43.711 10.8496C44.0625 10.0488 44.1309 9.6582 44.1406 8.53516C44.1406 7.1582 43.9453 6.43555 43.3692 5.66406C42.5195 4.54102 41.4551 4.00391 40.0391 4.00391C38.8477 4.00391 37.9297 4.375 37.1192 5.18555C36.2207 6.09375 35.9375 6.88477 35.9375 8.54492C35.9473 9.66797 36.0156 10.0488 36.3672 10.8496C36.416 10.9668 36.3379 11.0352 36.0156 11.123C35.7813 11.1914 35.4199 11.3379 35.2051 11.4453C34.6387 11.7383 33.6621 12.7246 33.3887 13.2812C33.2617 13.5449 33.125 13.7598 33.0859 13.7695C33.0567 13.7695 32.8906 13.4473 32.7344 13.0566C31.9824 11.2402 31.9238 9.35547 32.5293 7.32422C32.7539 6.57227 32.7051 6.25 32.3047 5.9082C31.7969 5.47852 31.0254 5.6543 30.7324 6.26953C29.9219 7.99805 29.8438 11.0449 30.5469 13.1348C30.6641 13.457 30.7227 13.75 30.6836 13.7793C30.5664 13.877 21.9434 18.4668 21.9238 18.4375C21.9141 18.418 21.6895 18.125 21.4258 17.7734C19.5606 15.3027 16.7285 13.623 13.6719 13.1738C12.4024 12.9883 10.1367 13.1055 8.94532 13.418C7.88087 13.7012 6.71876 14.1602 6.23048 14.4922C5.79103 14.7852 5.61525 15.3223 5.80079 15.7715C5.93751 16.0938 6.37696 16.4062 6.68946 16.4062C6.77735 16.4062 7.334 16.2012 7.93946 15.957C9.32618 15.3809 10.4785 15.1367 11.8262 15.1367C16.6113 15.1367 20.6445 18.3887 21.6016 23.0469C21.7578 23.7988 21.7871 24.2285 21.7481 25.3418C21.6992 26.8848 21.4844 27.8418 20.9668 28.9453L20.6445 29.6289L20.3613 29.043C19.9317 28.2031 18.7891 27.0703 17.9004 26.6309C17.5098 26.4453 16.9434 26.2305 16.6504 26.1621C16.3477 26.0938 16.1231 26.0156 16.1328 25.9863C16.1524 25.957 16.2793 25.6934 16.4356 25.4199C16.8164 24.6875 16.9922 23.8281 16.9922 22.6465C16.9922 21.3379 16.875 20.7324 16.4649 19.8535C15.6738 18.1836 13.7988 17.002 11.9531 16.9922C9.63868 16.9824 7.57814 18.5938 6.98243 20.8691C6.78712 21.6016 6.79689 23.4863 6.98243 24.2969C7.06056 24.6289 7.2461 25.1367 7.39259 25.4199C7.54884 25.6934 7.67579 25.957 7.69532 25.9863C7.70509 26.0156 7.48048 26.0938 7.17775 26.1621C6.88478 26.2305 6.31837 26.4453 5.92775 26.6309C5.04884 27.0703 3.8965 28.2031 3.47657 29.043L3.19337 29.6094L3.01759 29.2871C2.45118 28.2324 2.05079 26.4355 2.05079 25C2.05079 23.4277 2.3047 22.334 3.07618 20.5176C3.31056 19.9609 3.33009 19.8438 3.23243 19.5117C3.09571 19.0625 2.74415 18.8086 2.2754 18.8281C1.76759 18.8477 1.50392 19.0625 1.17189 19.7266C-0.17577 22.4023 -0.390614 26.123 0.644542 29.0234C1.97267 32.7441 5.0879 35.5762 8.95509 36.582C10.1367 36.8945 12.4024 37.0117 13.6719 36.8262C15.4297 36.5625 17.1094 35.9082 18.6426 34.8926C19.5703 34.2676 21.0547 32.832 21.582 32.0508C21.7676 31.7676 21.9531 31.5527 21.9824 31.5723C22.0215 31.582 24.0039 32.6465 26.4063 33.9258C29.9024 35.8008 30.752 36.2988 30.7031 36.416C30.2246 37.5195 29.9707 39.4043 30.0977 40.9961C30.4199 45.0879 33.4082 48.6133 37.5 49.7266C38.2227 49.9219 38.5547 49.9512 40.0391 49.9512C41.5235 49.9512 41.8555 49.9219 42.5781 49.7266C44.8047 49.1113 46.8848 47.6855 48.1934 45.8594C48.7598 45.0586 49.4531 43.5938 49.7266 42.6172C49.9024 41.9629 49.9414 41.582 49.9414 40.0879C49.9512 38.5449 49.9219 38.2324 49.7266 37.5C49.4141 36.3672 49.1504 35.918 48.7305 35.7812C48.3301 35.6543 47.9004 35.752 47.6172 36.0352C47.3438 36.2988 47.3633 36.8359 47.6856 38.0273C48.125 39.6484 48.0371 41.3281 47.4121 42.9688C47.1582 43.6328 47.002 43.9258 46.9531 43.8477C46.9336 43.8184 46.836 43.623 46.7285 43.4082C46.2598 42.4805 45.0781 41.5039 44.0625 41.2012C43.7402 41.1035 43.6621 41.0449 43.711 40.9277C44.0625 40.127 44.1309 39.7363 44.1406 38.6133C44.1406 37.2363 43.9453 36.5137 43.3692 35.7422C42.5195 34.6191 41.4551 34.082 40.0391 34.082C38.8477 34.082 37.9297 34.4531 37.1192 35.2637C36.2207 36.1719 35.9375 36.9629 35.9375 38.623C35.9473 39.7363 36.0156 40.127 36.3672 40.9277C36.416 41.0449 36.3184 41.1133 35.918 41.2402C34.9024 41.5625 33.8184 42.4707 33.3789 43.3691C33.252 43.6328 33.125 43.8379 33.0859 43.8477C32.9688 43.8477 32.4219 42.4121 32.2754 41.6992C32.0703 40.7031 32.0899 39.1895 32.3242 38.2031C32.9981 35.3809 35.0977 33.2324 38.0371 32.3535C38.4863 32.2168 38.9649 32.1777 40.0391 32.1777C41.3184 32.1777 41.543 32.207 42.3633 32.4512C43.4082 32.7734 43.7207 32.7441 44.0918 32.3047C44.5215 31.7969 44.3652 31.0742 43.7402 30.7617C43.5449 30.6543 43.0176 30.4688 42.5684 30.3516C41.8457 30.1562 41.5332 30.127 39.9902 30.1367C38.4961 30.1367 38.1152 30.1758 37.4609 30.3516C36.4844 30.625 35.0195 31.3184 34.2188 31.8848C33.5352 32.373 32.3731 33.5059 32.0117 34.043C31.8848 34.2285 31.7481 34.375 31.709 34.375C31.6406 34.375 23.0664 29.8145 22.959 29.7266C22.9395 29.707 23.0176 29.4434 23.125 29.1309C23.6133 27.7832 23.8281 26.543 23.8281 25.0684C23.8281 23.4375 23.6426 22.2949 23.125 20.8691C23.0176 20.5566 22.9395 20.293 22.959 20.2734C23.0664 20.1855 31.6602 15.625 31.7188 15.625C31.7578 15.625 31.8945 15.7812 32.0215 15.9766C32.1582 16.1719 32.5586 16.6211 32.9199 16.9922C35.0488 19.1406 37.8516 20.1562 40.9668 19.9023C45.1856 19.5605 48.6914 16.5332 49.7656 12.3047C49.9121 11.7188 49.9512 11.2402 49.9414 9.86328C49.9414 8.30078 49.9121 8.07617 49.668 7.27539C49.1406 5.50781 48.3301 4.12109 47.1387 2.94922C46.1719 1.98242 45.5371 1.52344 44.3848 0.976562C42.9102 0.253906 42.1485 0.0878906 40.2832 0.0488281C39.4238 0.0292969 38.6133 0.0390625 38.4766 0.0585938ZM41.1426 6.37695C41.3379 6.52344 41.6211 6.80664 41.7676 7.00195C42.0313 7.34375 42.041 7.40234 42.041 8.49609C42.041 9.57031 42.0313 9.6582 41.7774 10.0391C40.9473 11.2793 39.1309 11.2793 38.3008 10.0391C38.0664 9.67773 38.0371 9.53125 38.0078 8.63281C37.9688 7.5293 38.0762 7.1582 38.584 6.65039C39.043 6.19141 39.4336 6.04492 40.1465 6.07422C40.6738 6.10352 40.8594 6.16211 41.1426 6.37695ZM39.209 12.9395C39.9512 13.1152 40.5371 13.0859 41.377 12.832C41.8457 12.6855 41.9336 12.6855 42.5977 12.8418C44.2774 13.252 45.0879 14.043 45.1953 15.3906L45.2442 15.9961L44.541 16.4844C43.1836 17.4414 41.6992 17.8906 39.9414 17.8809C38.3008 17.8711 36.6211 17.3145 35.3125 16.3477L34.834 15.9961L34.8828 15.3906C34.9414 14.6582 35.2051 14.1211 35.7422 13.6328C36.1817 13.2324 36.3672 13.1445 37.3047 12.8809C37.9883 12.6953 38.1641 12.6953 39.209 12.9395ZM13.2227 19.375C13.8379 19.6777 14.3848 20.2441 14.6875 20.8887C14.8633 21.2695 14.8926 21.5137 14.8926 22.6074C14.8926 24.0918 14.7559 24.502 14.043 25.2148C13.3984 25.8691 12.8027 26.1133 11.9141 26.123C11.2891 26.123 11.0938 26.0742 10.6152 25.8301C9.96095 25.498 9.44337 24.9707 9.1504 24.3262C8.8672 23.7109 8.79884 22.0312 9.02345 21.2695C9.55079 19.4531 11.543 18.5547 13.2227 19.375ZM10.3418 27.9492C11.3965 28.3203 12.8223 28.2715 13.8379 27.832L14.2481 27.6562L15.4004 27.9688C16.0352 28.1348 16.7871 28.4082 17.0703 28.5645C18.1055 29.1211 18.8281 30.2344 18.916 31.3867L18.9649 31.9922L18.3008 32.5391C17.0313 33.5645 15.918 34.1504 14.4043 34.5898C13.7207 34.7852 13.4082 34.8145 11.9141 34.8145C10.4297 34.8145 10.1074 34.7852 9.43361 34.5898C7.88087 34.1406 6.56251 33.4375 5.39064 32.4414L4.86329 31.9824L4.91212 31.3867C5.00001 30.2832 5.61525 29.2773 6.61134 28.6426C7.15821 28.3008 9.40431 27.6074 9.66798 27.7051C9.74611 27.7344 10.0488 27.8516 10.3418 27.9492ZM41.1426 36.4551C41.3379 36.6016 41.6211 36.8848 41.7676 37.0801C42.0313 37.4219 42.041 37.4805 42.041 38.5742C42.041 39.6484 42.0313 39.7363 41.7774 40.1172C40.9473 41.3574 39.1309 41.3574 38.3008 40.1172C38.0664 39.7559 38.0371 39.6094 38.0078 38.7109C37.9688 37.6074 38.0762 37.2363 38.584 36.7285C39.043 36.2695 39.4336 36.123 40.1465 36.1523C40.6738 36.1816 40.8594 36.2402 41.1426 36.4551ZM39.209 43.0176C39.9512 43.1934 40.5371 43.1641 41.377 42.9102C41.8457 42.7637 41.9336 42.7637 42.5977 42.9199C43.5742 43.1641 43.8867 43.3008 44.3457 43.7207C44.8731 44.1992 45.1367 44.7363 45.1953 45.4688L45.2442 46.0645L44.5996 46.5234C41.9531 48.4082 38.252 48.4473 35.5859 46.6016L34.9121 46.1328L34.9219 45.5078C34.9317 44.7461 35.1563 44.2383 35.7422 43.7109C36.1817 43.3105 36.3672 43.2227 37.3047 42.959C37.9883 42.7734 38.1641 42.7734 39.209 43.0176Z" fill="#77B82A"/>
<path id="Vector_2" d="M33.4277 2.6172C32.9492 2.69532 32.5879 3.31056 32.6953 3.85743C32.832 4.58985 33.8281 4.85353 34.3848 4.30665C35.0781 3.60353 34.4336 2.45118 33.4277 2.6172Z" fill="#77B82A"/>
<path id="Vector_3" d="M3.73045 16.3574C3.34959 16.5235 3.09568 17.0313 3.18357 17.4707C3.33982 18.2617 4.31639 18.5449 4.89256 17.9785C5.67381 17.1875 4.75584 15.9082 3.73045 16.3574Z" fill="#77B82A"/>
<path id="Vector_4" d="M46.1231 32.6855C45.4199 32.8223 45.1563 33.8477 45.6934 34.3848C45.9277 34.6094 46.0645 34.668 46.416 34.668C47.2168 34.668 47.6465 33.8965 47.2559 33.1445C47.0899 32.8223 46.5527 32.6074 46.1231 32.6855Z" fill="#77B82A"/>
</g>
</g>
<defs>
<clipPath id="clip0_0_371">
<rect width="50" height="50" fill="white"/>
</clipPath>
</defs>
</svg>
