<svg width="50" height="50" viewBox="0 0 50 50" fill="none" xmlns="http://www.w3.org/2000/svg">
<g id="2" clip-path="url(#clip0_0_364)">
<g id="Black">
<path id="Vector" d="M24.6094 0.927734C21.123 1.70898 18.457 4.21875 17.4609 7.67578C17.2656 8.34961 17.2363 8.66211 17.2363 10.1562C17.2363 11.6504 17.2656 11.9629 17.4609 12.6367C18.1934 15.1758 19.8145 17.207 22.1191 18.4766L22.6074 18.75H20.0977C17.7051 18.75 17.5684 18.7598 17.3828 18.9453C17.1973 19.1309 17.1875 19.2676 17.1875 21.6797V24.2188H15.8008H14.4141L11.5039 27.1191L8.60352 30.0195L8.01758 29.4629C7.5 28.9648 7.39258 28.9062 7.01172 28.9062H6.5918L3.69141 31.8164L0.78125 34.7168V35.1562V35.5957L7.59766 42.4023L14.4043 49.2188H14.8438H15.2832L18.1836 46.3086L21.0938 43.4082V42.9883C21.0938 42.6074 21.0352 42.5 20.5371 41.9824L19.9805 41.3965L21.5332 39.8438L23.0957 38.2812H28.9453H34.7949L35.1953 37.8613C38.9062 33.9648 48.5352 23.7305 48.7109 23.4961C49.2578 22.7539 49.3555 21.3965 48.9355 20.498C48.6621 19.9219 48.0566 19.3164 47.4805 19.0332C47.1191 18.8574 46.8457 18.8086 46.2402 18.7988C44.8047 18.7988 45.0195 18.6328 40.2148 23.4277L35.9375 27.6758V23.4082C35.9375 19.2676 35.9277 19.1309 35.7422 18.9453C35.5566 18.7598 35.4199 18.75 33.0371 18.75H30.5176L31.0352 18.4668C33.3105 17.207 34.9316 15.166 35.6641 12.6367C35.8594 11.9629 35.8887 11.6504 35.8887 10.1562C35.8887 8.66211 35.8594 8.34961 35.6641 7.67578C34.7266 4.43359 32.3145 2.01172 29.0918 1.06445C28.1445 0.791016 25.5859 0.712891 24.6094 0.927734ZM28.4668 2.63672C28.7402 2.70508 29.3945 2.96875 29.9316 3.22266C31.6016 4.0332 32.6758 5.10742 33.4961 6.78711C34.0723 7.98828 34.2773 8.85742 34.2773 10.1855C34.2773 13.1836 32.5781 15.8496 29.834 17.1484C28.7109 17.6758 27.8125 17.8711 26.5332 17.8711C23.5938 17.8711 20.9668 16.2402 19.668 13.623C19.082 12.4316 18.8477 11.4551 18.8477 10.1855C18.8477 8.85742 19.0527 7.98828 19.6289 6.78711C20.4492 5.10742 21.5234 4.0332 23.1934 3.22266C23.7305 2.96875 24.3945 2.70508 24.6582 2.63672C25.7715 2.36328 27.334 2.36328 28.4668 2.63672ZM34.375 21.0938V21.875H26.5625H18.75V21.0938V20.3125H26.5625H34.375V21.0938ZM46.6504 20.4102C46.7188 20.4102 46.9238 20.5469 47.1191 20.7129C47.5293 21.0742 47.6953 21.582 47.5586 22.0801C47.4805 22.3438 45.8984 24.082 40.7031 29.5703L33.9551 36.7188H28.0957H22.2266L20.4883 38.4473L18.75 40.1855L14.2773 35.7129L9.81445 31.25L12.5488 28.5156L15.2832 25.7812L21.875 25.8008C28.3203 25.8301 28.4766 25.8301 28.8086 26.0352C29.8535 26.6504 29.8535 28.0371 28.8086 28.6523C28.4863 28.8477 28.2715 28.8574 25.3125 28.9062C22.3242 28.9551 22.1484 28.9648 22.0117 29.1406C21.8066 29.4238 21.8359 30.0391 22.0703 30.2734C22.2656 30.4688 22.3926 30.4688 28.9258 30.4688H35.5957L40.5762 25.4883C43.8574 22.207 45.6641 20.4688 45.8496 20.4102C46.0156 20.3613 46.2305 20.3418 46.3379 20.3613C46.4453 20.3906 46.582 20.4102 46.6504 20.4102ZM34.375 24.2188V25H32.334C30.4102 25 30.2832 24.9902 30.0391 24.7949C29.8926 24.6777 29.5605 24.502 29.2871 24.4043C28.8379 24.2285 28.4668 24.2188 23.7793 24.2188H18.75V23.8281V23.4375H26.5625H34.375V24.2188ZM34.375 27.7344V28.9062H32.666C31.7285 28.9062 30.957 28.8867 30.957 28.8672C30.957 28.8477 31.0254 28.6426 31.1035 28.418C31.1816 28.1934 31.25 27.6758 31.25 27.2852V26.5625H32.8125H34.375V27.7344ZM13.0859 36.9629L19.0918 42.9688L16.9629 45.0879L14.8438 47.2168L8.81836 41.1914L2.7832 35.1562L4.88281 33.0566C6.03516 31.9043 7.00195 30.957 7.03125 30.957C7.06055 30.957 9.78516 33.6621 13.0859 36.9629Z" fill="#77B82A"/>
<path id="Vector_2" d="M25.9766 4.88281C25.8203 5.03906 25.7812 5.20508 25.7812 5.66406V6.25H25.4883C24.7949 6.25 23.9648 6.8457 23.623 7.56836C23.3789 8.0957 23.3789 9.0918 23.623 9.61914C23.7207 9.83398 23.9551 10.1465 24.1309 10.3223C24.6582 10.8203 25.0586 10.9375 26.2207 10.9375C27.7344 10.9375 28.1836 11.2012 27.9883 11.9727C27.8711 12.4121 27.4512 12.5 25.5371 12.5C23.9551 12.5 23.8086 12.5195 23.6328 12.6953C23.5059 12.8223 23.4375 13.0176 23.4375 13.2812C23.4375 13.9453 23.6523 14.0625 24.8047 14.0625H25.7812V14.6484C25.7812 15.3809 25.9766 15.625 26.5625 15.625C27.1484 15.625 27.3438 15.3809 27.3438 14.6484V14.0625H27.6367C28.3301 14.0625 29.1602 13.4668 29.502 12.7441C29.6191 12.4902 29.6875 12.1289 29.6875 11.7188C29.6875 10.9668 29.4727 10.4492 28.9941 9.99023C28.4668 9.49219 28.0664 9.375 26.9043 9.375C25.3906 9.375 24.9414 9.11133 25.1367 8.33984C25.2539 7.90039 25.6738 7.8125 27.5879 7.8125C29.1699 7.8125 29.3164 7.79297 29.4922 7.61719C29.6191 7.49023 29.6875 7.29492 29.6875 7.03125C29.6875 6.36719 29.4727 6.25 28.3203 6.25H27.3438V5.66406C27.3438 4.93164 27.1484 4.6875 26.5625 4.6875C26.2988 4.6875 26.1035 4.75586 25.9766 4.88281Z" fill="#77B82A"/>
</g>
</g>
<defs>
<clipPath id="clip0_0_364">
<rect width="50" height="50" fill="white"/>
</clipPath>
</defs>
</svg>
