<?xml version="1.0" encoding="utf-8"?><svg viewBox="0 0 100 95" xmlns="http://www.w3.org/2000/svg" xmlns:xlink="http://www.w3.org/1999/xlink"><style>:root>svg{display:none}:root>svg:target{display:block}</style><svg fill="none" viewBox="0 0 50 50" id="1" xmlns="http://www.w3.org/2000/svg"><g fill="currentColor" clip-path="url(#aa)"><path d="M39.814.107a3.206 3.206 0 0 0-.634.225c-.147.078-2.442 2.324-5.098 4.98l-4.834 4.844H6.543v-3.75c0-3.457-.01-3.77-.176-3.965-.234-.293-.86-.351-1.777-.156-2.13.44-3.897 2.13-4.444 4.229-.224.85-.224 32.9 0 33.77.47 1.835 1.905 3.349 3.76 3.984l.635.214 11.611.03 11.621.029-2.119 2.12c-1.972 1.982-2.119 2.157-2.119 2.48 0 .195.078.449.186.576l.185.234h12.842c12.49 0 12.842-.01 13.047-.185L50 49.58V36.7c0-12.745 0-12.872-.195-13.067-.127-.127-.323-.195-.557-.195-.322 0-.459.107-1.514 1.142l-1.152 1.143V10.635l-.244-.235-.235-.244h-5.82l2.12-2.129c1.161-1.162 2.187-2.275 2.285-2.46.253-.499.234-1.495-.03-2.003-.283-.527-2.92-3.125-3.35-3.3C40.82.059 40.245 0 39.815.107Zm2.266 2.96c1.543 1.542 1.533 1.513.42 2.626l-.8.801-1.632-1.63-1.64-1.641.683-.694c.81-.83 1.153-1.006 1.514-.82.137.078.791.684 1.455 1.357ZM4.98 14.892c0 8.125.03 11.142.108 11.318.166.352.674.508 1.045.312.156-.078.312-.224.351-.302.03-.088.059-3.389.059-7.334v-7.168H27.676l-2.07 2.08c-1.944 1.953-2.07 2.1-2.07 2.441 0 .479.273.752.751.752.352 0 .557-.185 5.498-5.127l5.127-5.127 1.64 1.64 1.632 1.632-7.55 7.549-7.538 7.539-1.631-1.631-1.64-1.64 1.513-1.524c1.406-1.407 1.514-1.543 1.514-1.875 0-.479-.274-.752-.752-.752-.332 0-.479.117-2.237 1.865l-1.875 1.865-1.25 3.555-1.25 3.555h-1.377c-1.27 0-1.396.02-1.562.195-.254.283-.244.83.03 1.104l.224.214h21.006l.185-.234c.215-.264.244-.772.049-1.045-.137-.176-.361-.186-7.5-.234l-7.354-.05 2.1-.722 2.1-.732 7.666-7.647 7.666-7.646H45.02v15.576l-5.323 5.322c-3.213 3.213-5.322 5.4-5.332 5.518-.03.42.03.596.264.81.537.479.264.723 7.285-6.298l6.523-6.524V32.422h-.78c-.714 0-.811.03-1.026.244-.264.254-.303.498-.137.86.156.341.479.458 1.26.458h.684v2.032l-.791.039c-.723.029-.811.058-1.026.302-.283.333-.303.645-.03.987.186.234.255.254 1.026.254h.82v2.148h-.683c-.371 0-.781.049-.918.107-.488.225-.557 1.006-.127 1.31.146.097.459.146.967.146h.761v2.148h-.78c-.714 0-.811.03-1.026.244-.264.254-.303.498-.137.86.156.341.479.459 1.26.459h.684v3.418H26.122l3.79-3.79c3.603-3.603 3.778-3.798 3.778-4.14 0-.43-.351-.762-.81-.762-.244 0-.537.254-1.924 1.611l-1.63 1.621-12.247-.038c-13.447-.03-12.578.01-13.574-.606-.606-.371-.947-.703-1.309-1.27-.498-.771-.664-1.416-.615-2.304.117-1.953 1.67-3.535 3.79-3.838 1.25-.176 1.171.049 1.171-3.457 0-2.93 0-2.988-.215-3.213-.293-.313-.79-.303-1.103.02l-.245.234V33.369l-.644.156c-.8.206-1.494.547-2.217 1.104l-.557.44V21.19c0-15.449-.048-14.384.674-15.498A4.252 4.252 0 0 1 3.906 4.2c.4-.205.81-.361 1.006-.38.04-.01.068 4.98.068 11.074Zm33.985-8.887 1.611 1.611-.635.635-.634.635-1.631-1.631-1.64-1.64.605-.606c.332-.342.634-.615.664-.615.029 0 .771.722 1.66 1.61ZM20.36 24.609c.694.694 1.24 1.29 1.211 1.309-.029.03-.468.195-.986.38l-.947.333-.664-.674-.665-.664.342-.977c.186-.537.362-.976.391-.976.03 0 .625.566 1.318 1.27Z"/><path d="M43.604 35.264c-.313.175-8.155 8.017-8.31 8.31-.186.361-.177.596.067.899l.196.254h8.75l.205-.225c.215-.225.215-.244.215-4.531 0-3.955-.01-4.317-.166-4.512-.215-.244-.694-.342-.957-.195Zm-.44 5.263v2.637h-5.322l2.637-2.637a181.967 181.967 0 0 1 2.656-2.636c.02 0 .03 1.181.03 2.636Z"/></g><defs><clipPath id="aa"><path fill="#fff" d="M0 0h50v50H0z"/></clipPath></defs></svg><svg fill="none" viewBox="0 0 50 50" id="2" xmlns="http://www.w3.org/2000/svg"><g fill="currentColor" clip-path="url(#ba)"><path d="M33.477.156c-.293.157-.567.596-.567.908 0 .206-.01.206-10.644.225l-10.645.03-.312.322-.323.312V7.031l.303.293c.41.42.791.479 2.754.489h1.68v2.44l-1.338 1.417-1.328 1.416h-.489c-.546 0-.947.195-1.181.586-.127.234-.157.596-.157 2.314 0 2.237.03 2.373.577 2.735l.332.224h4.336c4.785 0 4.834-.01 5.205-.605.185-.303.195-.45.175-2.442l-.029-2.128-.312-.313c-.264-.264-.4-.313-.909-.352l-.585-.039-1.368-1.445-1.367-1.445V7.813h15.606l.049.273c.146.713.683.996 1.904.996h.703v29.102h-1.191c-1.397 0-1.807.097-2.286.507-.615.547-.625.577-.625 3.496v2.637h-.566c-.908 0-1.533.235-2.08.782-.635.634-.801 1.2-.752 2.646l.03 1.084.36.332.372.332h10.107c9.229 0 10.137-.01 10.361-.156.44-.293.528-.616.528-1.866 0-1.005-.03-1.22-.235-1.64-.44-.957-1.386-1.514-2.558-1.514h-.518l-.03-2.676-.029-2.675-.292-.42c-.498-.703-.84-.81-2.559-.85l-1.494-.039V9.082h.713c1.2 0 1.748-.293 1.894-.996l.05-.264 2.07-.029c3.105-.049 3.027.039 3.066-3.106.039-2.51-.02-2.832-.557-3.193-.322-.215-.4-.224-2.441-.224h-2.12l-.117-.44c-.088-.322-.195-.488-.439-.635C43.906.01 43.711 0 38.819 0c-4.297.01-5.118.03-5.342.156Zm9.687 4.336V7.52H34.473V1.465H43.164v3.027Zm-28.564.04 1.757 1.708h-1.923l-1.934.01V4.541c0-1.572.01-1.709.176-1.709.097 0 .957.772 1.924 1.7Zm5.273-.186c-.86.83-1.582 1.504-1.611 1.513-.03 0-.733-.683-1.563-1.513l-1.514-1.514H21.436l-1.563 1.514Zm10.254-.01L28.564 5.84l-.537-.469a54.018 54.018 0 0 1-1.562-1.504l-1.026-1.035h3.125l3.125.01-1.562 1.494Zm18.213-.371v1.133l-.557-.489c-.312-.273-.85-.78-1.201-1.132l-.625-.645h2.383v1.133Zm-22.9 1.103L26.61 6.25H20.186l1.601-1.553 1.602-1.543.44.371c.243.196.966.899 1.61 1.543Zm7.47.01V6.25h-2.432l1.192-1.172c.654-.644 1.201-1.172 1.22-1.172.01 0 .02.528.02 1.172Zm14.248 1.143c.02.02-.517.029-1.191.029h-1.24V3.877l1.2 1.152c.655.645 1.212 1.172 1.231 1.192Zm-6.63 4.052c0 .997-.02 1.172-.128 1.055-.078-.078-.585-.615-1.142-1.201l-1.006-1.045h2.275v1.191Zm-.391 3.116c0 .029-.684.752-1.504 1.611l-1.514 1.553v-6.348l1.504 1.563c.83.859 1.504 1.582 1.514 1.62Zm-23.545-.323c-.654.01-1.211 0-1.24-.029-.03-.03.224-.342.576-.693l.625-.635.615.664.615.664-1.191.03Zm3.72 2.95v1.367h-7.519V14.648h7.52v1.368Zm20.215 2.52v3.105l-1.562-1.563-1.563-1.572 1.543-1.543c.84-.84 1.543-1.533 1.553-1.533.02 0 .03 1.396.03 3.105Zm-.39 5.097c0 .03-.684.752-1.514 1.611l-1.504 1.563v-6.348l1.504 1.563c.83.859 1.514 1.582 1.514 1.61Zm.39 5.098v3.154l-1.562-1.563-1.563-1.552 1.543-1.582c.84-.87 1.543-1.582 1.563-1.592.01 0 .02 1.406.02 3.134Zm-.39 5.146c-.01.03-.684.762-1.514 1.621l-1.504 1.563v-6.348l1.504 1.553c.83.859 1.514 1.582 1.514 1.611Zm.39 3.135v1.172H38.262l1.113-1.172c.605-.645 1.113-1.172 1.133-1.172.01 0 .02.527.02 1.172Zm4.239 2.89c.136.127.156.498.156 2.54v2.382h-2.236c-2.11 0-2.246.01-2.49.205-.333.264-.352.801-.04 1.133l.205.225h3.506c2.92 0 3.555.029 3.79.146.468.244.585.508.585 1.29v.712H29.59V47.9c0-.38.058-.761.146-.927.293-.576.381-.586 4.21-.586 3.447 0 3.495 0 3.72-.215.322-.303.313-.879-.03-1.143-.243-.195-.38-.205-2.44-.205h-2.188v-2.422c0-1.758.03-2.45.117-2.539.088-.088 1.514-.117 5.8-.117 5.04 0 5.704.02 5.84.156Z"/><path d="M.674 16.143c-.186.127-.381.37-.45.556C.069 17.16.05 48.594.206 49.16c.059.205.205.479.332.606L.771 50h8.194c8.115 0 8.203 0 8.447-.205.45-.342.469-.635.44-4.951l-.03-4.043-.234-.186a.757.757 0 0 0-1.035.059l-.244.234v7.627H1.66V17.48H8.203v1.758H6.895c-.723 0-1.387.03-1.475.059-.244.098-.46.605-.39.928.116.507.341.576 1.825.576h1.348v2.52l-1.28.038c-1.2.03-1.288.04-1.464.264-.254.313-.244.8.039 1.064.205.196.332.215 1.465.215h1.24v6.748l.244.235.235.244H16.309v6.025l.224.205a.785.785 0 0 0 1.104-.029l.244-.244-.03-3.467-.029-3.467-.273-.263-.264-.274-1.758-.03-1.757-.028v-3.594l1.816-.03 1.816-.029.235-.273c.283-.332.302-.645.029-.986l-.195-.254H13.77v-1.27c0-1.142-.02-1.289-.196-1.465-.254-.254-.781-.254-1.084-.01-.224.176-.234.264-.273 1.465l-.03 1.28H9.767v-4.346c0-3.154-.03-4.404-.118-4.59-.234-.527-.312-.537-4.648-.537H1.006l-.332.225ZM12.207 28.76v1.806H9.766v-3.613h2.441v1.807Z"/><path d="M4.111 34.307c-.664.234-.742.459-.771 2.343-.04 1.856.039 2.285.44 2.598.243.205.35.205 5.195.205 5.43 0 5.214.02 5.527-.586.117-.224.146-.674.146-2.031 0-1.66-.01-1.768-.224-2.08a1.356 1.356 0 0 0-.557-.45c-.478-.165-9.287-.165-9.756 0Zm4.092 2.51v1.074h-3.32v-2.149h3.32v1.074Zm4.883 0v1.074h-3.32v-2.149h3.32v1.074ZM3.906 41.748c-.478.254-.537.508-.537 2.5 0 1.709.01 1.846.205 2.11.39.517.322.517 5.39.517 5.255 0 5.226 0 5.528-.635.215-.44.225-3.506.02-4.004-.274-.644-.196-.634-5.547-.634-3.906.01-4.863.029-5.059.146Zm4.297 2.49v1.075h-3.32v-2.149h3.32v1.074Zm4.883 0v1.075h-3.32v-2.149h3.32v1.074Z"/></g><defs><clipPath id="ba"><path fill="#fff" d="M0 0h50v50H0z"/></clipPath></defs></svg><svg fill="none" viewBox="0 0 50 50" id="3" xmlns="http://www.w3.org/2000/svg"><path d="M29.219 4.746c-.284.137-.596.371-.694.518-.146.205-.351.302-.927.44-2.002.468-3.809 1.845-4.844 3.7-.274.489-.332.547-.469.44-.088-.069-1.035-.957-2.11-1.963-1.19-1.123-2.128-1.924-2.382-2.041-.547-.244-1.338-.244-1.895 0-.263.117-1.23.957-2.666 2.305l-2.246 2.109-.097-.361c-.264-.987-.381-1.026-2.92-.987l-2.032.03-.283.322-.283.312v3.008l-.01 2.998-2.48 2.324C.146 20.47 0 20.664 0 21.64c.01 1.739 1.69 2.755 3.252 1.973.215-.107.752-.547 1.201-.976l.82-.791v2.607c0 2.47.01 2.608.196 2.793.283.283.8.293 1.103.03.157-.147.166-.44.166-3.487l.01-3.33 5.049-4.746 5.049-4.756 1.367 1.29c.742.702 1.66 1.562 2.031 1.913l.664.635.049 1.758c.04 1.21.098 1.884.205 2.177.195.557.674.918 1.299.977l.479.04.068.458c.244 1.65 1.494 3.78 2.842 4.824l.517.41v1.319l-.723.361-.712.352-.313-.215c-.459-.332-.957-.283-2.344.224-.673.254-1.25.45-1.289.45-.039 0-.088-1.201-.107-2.666-.03-2.383-.049-2.696-.205-2.94-.342-.517-.567-.547-3.819-.547-1.728 0-3.085.04-3.232.098-.137.049-.361.215-.488.352l-.244.263v9.15l-.362.46c-.615.81-1.2 2.304-1.2 3.076v.273H6.845l-.03-2.295c-.029-2.217-.039-2.295-.244-2.51-.302-.302-.869-.292-1.113.01-.166.205-.186.43-.186 2.686 0 2.744.04 2.93.674 3.35.323.214.4.224 2.803.224 2.334 0 2.48.01 2.48.176 0 .097-.068 1.65-.156 3.437-.136 2.989-.136 3.291.01 3.672.195.508.557.889 1.074 1.123.371.176 1.133.186 18.262.186 12.002 0 17.988-.04 18.232-.098.47-.137.918-.517 1.153-.986.146-.283.195-.576.195-1.211 0-.762-.02-.86-.244-1.074-.293-.293-.625-.313-.967-.04-.234.186-.254.264-.254.87 0 1.015.088.976-2.451.976h-2.139V30.967l.518.176c1.474.517 2.373 1.21 3.066 2.353.42.703.615 1.514.674 2.813.069 1.855.127 2.256.342 2.47.273.274.781.244 1.064-.058l.235-.244-.117-1.934c-.118-2.139-.254-2.715-.84-3.77-.674-1.21-1.846-2.246-3.106-2.763-.322-.127-2.314-.85-4.433-1.592-4.19-1.484-4.502-1.553-4.99-1.133l-.274.235-.752-.381-.762-.381v-.664l.01-.655.488-.38c1.397-1.075 2.676-3.204 2.91-4.844l.06-.44.458-.048c.781-.098 1.367-.694 1.484-1.514.04-.244.069-.87.069-1.397 0-.517.03-1.298.049-1.738.068-.976-.088-1.416-.596-1.709-.322-.195-.342-.234-.342-.703-.01-1.601-.79-3.437-2.05-4.785-1.036-1.113-2.325-1.865-3.712-2.178-.546-.127-.742-.224-1.113-.576-.517-.498-.918-.635-1.875-.635-.537 0-.79.049-1.191.254Zm1.972 1.465c.235.234.274.508.235 1.777-.04 1.446-.117 1.582-.928 1.582-.85 0-.908-.117-.908-1.738 0-1.68.049-1.777.879-1.777.39 0 .625.049.722.156ZM17.95 7.93c.479.449 1.572 1.465 2.432 2.265l1.553 1.455-.088.743c-.05.41-.127.78-.176.83-.068.078-.693-.479-3.818-3.428-.547-.527-.694-.615-.997-.615-.42 0 .303-.655-8.554 7.705-3.145 2.959-5.81 5.41-5.938 5.449-.556.137-1.045-.43-.79-.938.107-.205 8.427-8.125 14.511-13.798.322-.293.596-.47.742-.47.166 0 .518.255 1.123.802Zm16.338-.274c.84.4 1.758 1.211 2.315 2.06.683 1.016.996 2.022 1.064 3.448.059 1.026.078 1.113.303 1.29.136.106.322.194.42.194.107 0 .185.069.185.147 0 .127-.967.146-8.105.146-7.139 0-8.106-.02-8.106-.146 0-.088.088-.147.235-.147a.836.836 0 0 0 .459-.185c.205-.166.234-.283.293-1.387.078-1.416.38-2.412 1.044-3.379.762-1.123 2.276-2.236 3.301-2.431l.303-.059.049 1.162c.039.908.088 1.24.254 1.543.42.84 1.025 1.152 2.168 1.162 1.035.01 1.65-.254 2.1-.898.283-.41.292-.46.322-1.729l.039-1.299.4.127c.225.069.654.245.957.381ZM9.375 11.065v.722l-1.27 1.191-1.27 1.202v-3.828h2.54v.713Zm13.574 6.425c0 .694-.02.782-.166.752-.146-.03-.176-.156-.205-.79-.03-.704-.01-.753.176-.753.176 0 .195.059.195.791Zm13.574.81c0 1.807-.136 2.452-.732 3.526-1.094 1.953-2.773 3.086-4.932 3.33-.761.088-2.011-.175-2.89-.595-1.26-.616-2.51-2.002-3.145-3.487-.244-.576-.254-.722-.293-2.5l-.039-1.875H36.523v1.602Zm1.934-.849c-.03.635-.059.762-.195.791-.157.03-.176-.058-.176-.752 0-.732.02-.79.195-.79.186 0 .205.048.176.751Zm-19.14 8.438-.03 2.656-2.1.742c-1.152.41-2.236.83-2.412.918-.175.088-.332.166-.37.166-.03 0-.05-1.582-.05-3.515V23.35l1.104-.04c.596-.01 1.719-.038 2.49-.048l1.387-.02-.02 2.647Zm9.638.625c.947.215 2.158.205 3.203-.04.469-.117.88-.204.899-.204.029 0 .048.263.048.576 0 .722.215 1.015 1.065 1.425.332.157.586.332.566.381-.068.196-1.582.928-2.363 1.143-1.816.508-4.092.176-5.703-.83l-.527-.322.712-.381c.85-.45 1.075-.752 1.075-1.485 0-.449.02-.517.175-.468.088.029.479.117.85.205Zm-5.45 3.808c.352 1.738.616 2.354 1.29 3.008.244.244 1.465 1.084 2.695 1.855l2.246 1.417.03 3.671.02 3.672H18.554V30.42l2.275-.8c1.24-.44 2.285-.802 2.315-.802.029-.01.185.674.36 1.504Zm16.778-.644 2.149.761.029 6.758.02 6.748H31.25l.02-3.681.029-3.682 2.197-1.387c2.402-1.513 3.106-2.09 3.467-2.9.176-.38.83-3.106.83-3.457 0-.059-.03-.059 2.49.84Zm-14.785.361c.713.488 1.758.967 2.686 1.23.664.186.996.225 2.334.215 1.63 0 2.119-.088 3.417-.605.46-.186 1.387-.703 1.885-1.055.117-.088.215-.117.215-.058 0 .234-.303 1.504-.42 1.806-.224.528-.644.87-2.724 2.168-1.094.694-2.07 1.309-2.188 1.387-.185.117-.39.01-2.392-1.25-2.422-1.524-2.461-1.553-2.774-2.05-.185-.284-.693-2.14-.586-2.14.02 0 .264.157.547.352Zm-8.408 7.412v6.494h-2.188c-1.845 0-2.207-.02-2.304-.146-.108-.127-.108-.703-.01-3.057.234-5.8.283-6.172.86-7.207.341-.605 1.025-1.338 1.6-1.709.382-.234 1.632-.781 2.022-.86.01-.009.02 2.911.02 6.485Z" fill="currentColor"/></svg><svg fill="none" viewBox="0 0 50 50" id="4" xmlns="http://www.w3.org/2000/svg"><g fill="currentColor" clip-path="url(#da)"><path d="m24.307.283-.284.283v10.372H13.701l-.244.244a1.35 1.35 0 0 0-.313.546c-.107.538-.068 10.167.04 10.557.214.772 1.113 1.026 1.67.479l.283-.284V12.892H28.32V16.68l-1.865.039-1.865.029-.283.322c-.4.44-.4.996 0 1.397l.283.283h3.73V22.148l-1.865.04-1.865.029-.283.322c-.4.44-.4.996 0 1.396l.283.284h3.73v3.399l-1.865.038-1.865.03-.283.322c-.4.44-.4.996 0 1.396l.283.284h3.73v3.398l-1.865.039-1.865.03-.283.322c-.4.439-.4.996 0 1.396l.283.283h3.73v3.399l-1.865.039-1.865.029-.283.322c-.4.44-.4.996 0 1.397l.283.283h3.73V44.023l-1.865.04-1.865.029-.283.322c-.4.44-.4.996 0 1.396l.283.284h3.73V48.047h-4.883V29.619l-.253-.264-.264-.253H2.47l-.264.253-.254.264v18.428H1.23c-.644 0-.742.03-.976.254-.361.37-.361 1.074 0 1.445L.518 50h48.964l.264-.254c.361-.371.361-1.074 0-1.445-.234-.225-.332-.254-.977-.254h-.722V22.783l-.244-.244a1.347 1.347 0 0 0-.547-.312c-.176-.03-1.309-.059-2.54-.059H42.48v-6.191c0-3.399-.029-6.329-.058-6.495a1.224 1.224 0 0 0-.274-.507c-.107-.108-3.925-2.168-8.486-4.58C24.551-.44 24.892-.293 24.307.283Zm10.488 7.041 5.625 2.979.01 5.927v5.938h-2.871c-1.573 0-2.998.03-3.174.059-.166.039-.41.175-.547.312l-.244.244V48.047H30.372V11.484l-.265-.273-.263-.274h-3.77V2.726l1.543.81c.85.45 4.072 2.149 7.178 3.79Zm11.299 18.604v1.709h-2.578c-1.416 0-2.706.029-2.881.058-.772.157-1.084 1.143-.528 1.72l.264.273H46.094v3.418h-2.578c-1.416 0-2.706.029-2.881.058-.498.098-.791.479-.791 1.006 0 .38.049.508.273.723l.274.263H46.094v3.418h-2.578c-1.416 0-2.706.03-2.881.059-.772.156-1.084 1.142-.528 1.719l.264.273H46.094v3.418l-1.485.01c-1.787 0-2.1.088-2.363.605-.156.322-.166.44-.068.752.185.635.361.684 2.256.684h1.66V48.047H35.547V24.219h10.547v1.709ZM21.484 39.55v8.496H3.906V31.055h17.578v8.496Z"/><path d="M32.871 11.29c-.254.253-.254.282-.254 1.62v1.367l.283.284c.225.224.372.283.694.283.322 0 .468-.059.693-.284l.283-.283V12.91c0-1.338 0-1.367-.254-1.62-.205-.206-.351-.255-.722-.255s-.518.049-.723.254ZM36.777 11.29c-.254.253-.254.282-.254 1.62v1.367l.284.284c.224.224.37.283.693.283.322 0 .469-.059.693-.284l.284-.283V12.91c0-1.338 0-1.367-.254-1.62-.205-.206-.352-.255-.723-.255s-.518.049-.723.254ZM33.33 16.768c-.117.02-.322.156-.459.293-.254.244-.254.273-.254 1.709 0 1.406.01 1.464.235 1.689.127.127.351.264.488.303.351.088.713-.03.996-.303.224-.225.234-.283.234-1.69 0-1.445 0-1.464-.254-1.718-.146-.137-.312-.254-.39-.254-.069 0-.176-.02-.254-.04a1.03 1.03 0 0 0-.342.01ZM37.236 16.768c-.117.02-.322.156-.459.293-.254.244-.254.273-.254 1.709 0 1.406.01 1.464.235 1.689.283.273.644.39.996.303a1.39 1.39 0 0 0 .488-.303c.225-.225.235-.283.235-1.69 0-1.445 0-1.464-.254-1.718-.147-.137-.313-.254-.391-.254-.068 0-.176-.02-.254-.04a1.03 1.03 0 0 0-.342.01ZM38.408 44.16c-.723.186-.957 1.113-.43 1.65.391.381 1.036.4 1.407.04.771-.782.078-1.973-.977-1.69ZM6.416 33.115c-.4.235-.459.567-.459 2.676 0 2.93-.146 2.774 2.803 2.783h2.178l.312-.283.322-.283.03-1.934c.039-2.217.01-2.46-.342-2.812l-.254-.254H8.799c-1.319 0-2.276.049-2.383.107Zm3.154 2.676v.732H8.008V35.06H9.57v.732ZM14.238 33.252c-.332.332-.37.586-.37 2.53 0 1.845.077 2.294.458 2.597.234.186.381.195 2.412.195 2.95-.01 2.793.157 2.793-2.88v-2.12l-.283-.283-.283-.283H14.482l-.244.244Zm3.242 2.539v.732h-1.562V35.06h1.562v.732ZM6.387 40.703c-.4.313-.43.518-.43 2.607 0 2.93-.156 2.774 2.842 2.784h2.207l.244-.244c.332-.332.371-.586.371-2.54 0-1.953-.039-2.207-.371-2.538l-.244-.245H8.799c-1.944 0-2.237.03-2.412.176ZM9.57 43.31v.733H8.008V42.578H9.57v.732ZM14.326 40.723c-.38.302-.459.752-.459 2.597 0 1.944.04 2.198.371 2.53l.244.244H18.965l.283-.284.283-.283v-4.394l-.283-.303-.283-.303h-2.197c-2.061 0-2.208.01-2.442.196Zm3.154 2.587v.733h-1.562V42.578h1.562v.732ZM13.604 25.098c-.733.44-.528 1.601.322 1.816.615.156 1.21-.322 1.21-.977-.01-.85-.81-1.289-1.532-.84Z"/></g><defs><clipPath id="da"><path fill="#fff" d="M0 0h50v50H0z"/></clipPath></defs></svg><svg fill="none" viewBox="0 0 20 20" id="chevron-down" xmlns="http://www.w3.org/2000/svg"><path d="m5 7.5 5 5 5-5" stroke="#fff" stroke-width="1.5" stroke-linecap="round" stroke-linejoin="round"/></svg><svg fill="none" viewBox="0 0 20 20" id="chevron-down-black" xmlns="http://www.w3.org/2000/svg"><path d="m5 7.5 5 5 5-5" stroke="#000" stroke-width="1.5" stroke-linecap="round" stroke-linejoin="round"/></svg><svg fill="none" viewBox="0 0 100 95" id="logo" xmlns="http://www.w3.org/2000/svg"><path d="M4.154 16.572c.037 1.462.488 2.65 1.358 3.568.907.955 2.052 1.436 3.43 1.436 1.333 0 2.46-.485 3.372-1.46.914-.971 1.367-2.21 1.367-3.717 0-1.172-.274-2.174-.822-3.017a5.098 5.098 0 0 0-.522-.663c-.897-.955-2.031-1.432-3.395-1.432-1.378 0-2.523.47-3.43 1.411-.908.942-1.361 2.17-1.361 3.687l.003.187ZM15.401 9.56c.088.088.173.176.258.267 1.59 1.72 2.386 3.928 2.386 6.62 0 2.596-.822 4.766-2.468 6.513-1.645 1.747-3.595 2.62-5.85 2.62-1.002 0-1.94-.179-2.803-.537-.867-.36-1.727-.942-2.58-1.754v1.842H0V.964h4.344v8.654c.789-.79 1.645-1.385 2.563-1.778a7.366 7.366 0 0 1 2.949-.592c1.618 0 3.06.433 4.333 1.303.424.288.826.623 1.212 1.009Zm10.577-5.143a2.83 2.83 0 0 1-.623.945c-.541.552-1.192.826-1.95.826a2.658 2.658 0 0 1-1.68-.562 3.383 3.383 0 0 1-.31-.278 2.816 2.816 0 0 1-.823-2.041c0-.769.27-1.426.816-1.97A2.669 2.669 0 0 1 23.37.52c.769 0 1.426.278 1.974.833.549.555.823 1.23.823 2.018 0 .372-.065.725-.19 1.046Zm-.42 20.714h-4.374V7.694h4.374v17.437Zm20.186-4.12a8.82 8.82 0 0 1-3.342 3.358c-1.412.806-2.966 1.209-4.666 1.209-2.498 0-4.631-.89-6.402-2.668-1.767-1.778-2.65-3.941-2.65-6.484 0-2.725.998-4.994 2.996-6.812 1.75-1.581 3.764-2.37 6.04-2.37a9.23 9.23 0 0 1 4.638 1.233c1.446.822 2.576 1.94 3.389 3.348a8.996 8.996 0 0 1 1.219 4.567 9.125 9.125 0 0 1-1.222 4.618Zm-4.52-8.245c-.894-.934-2.035-1.402-3.427-1.402-1.357 0-2.491.474-3.395 1.42-.904.944-1.358 2.156-1.358 3.629 0 1.516.447 2.745 1.34 3.686.895.942 2.025 1.412 3.397 1.412 1.367 0 2.508-.474 3.419-1.425.91-.951 1.364-2.174 1.364-3.67-.003-1.5-.45-2.715-1.34-3.65Z" fill="#77B82A"/><path fill-rule="evenodd" clip-rule="evenodd" d="M11.714 55.474v-8.04c0-2.123-.101-3.562-.304-4.317-.204-.752-.549-1.314-1.036-1.686-.488-.373-1.094-.556-1.812-.556-.93 0-1.733.308-2.4.928-.67.62-1.134 1.463-1.392 2.53-.135.55-.203 1.81-.203 3.774v7.367H0V30.051h4.567v8.935c.9-.775 1.805-1.357 2.716-1.743a6.974 6.974 0 0 1 2.766-.583c1.821 0 3.355.63 4.6 1.89 1.067 1.09 1.602 2.691 1.602 4.804v12.12h-4.537ZM24.58 34.68c-.572.578-1.256.866-2.052.866-.82 0-1.517-.294-2.092-.883-.576-.59-.867-1.307-.867-2.15 0-.81.285-1.5.857-2.076a2.818 2.818 0 0 1 2.068-.86c.806 0 1.5.292 2.076.877.579.586.866 1.294.866 2.123 0 .826-.284 1.524-.856 2.103Zm.217 20.794h-4.602V37.131h4.602v18.343Zm9.34-14.379v14.38h-4.604v-14.38h-2.36v-3.96h2.36v-6.762h4.605v6.761h2.732v3.961h-2.732Zm23.568 6.541H42.92c.213 1.304.785 2.34 1.71 3.112.927.768 2.109 1.154 3.548 1.154 1.72 0 3.196-.602 4.432-1.804l3.876 1.821c-.965 1.372-2.123 2.387-3.473 3.044-1.348.657-2.95.985-4.805.985-2.877 0-5.22-.907-7.028-2.722-1.812-1.815-2.716-4.086-2.716-6.819 0-2.8.901-5.122 2.706-6.97 1.804-1.85 4.066-2.773 6.784-2.773 2.888 0 5.238.924 7.046 2.772 1.811 1.849 2.715 4.29 2.715 7.327l-.01.873Zm-6.402-6.12c-.894-.64-1.933-.962-3.115-.962-1.283 0-2.41.359-3.379 1.08-.61.45-1.171 1.242-1.69 2.376h9.982c-.302-1.022-.901-1.852-1.798-2.495Zm24.251 1.435c-.72-.752-1.432-1.277-2.136-1.568-.704-.291-1.527-.437-2.472-.437-1.723 0-3.114.515-4.177 1.54-1.064 1.027-1.595 2.344-1.595 3.949 0 1.56.511 2.833 1.537 3.822 1.022.989 2.37 1.483 4.032 1.483 2.059 0 3.663-.704 4.811-2.11l3.63 2.486c-1.967 2.56-4.744 3.836-8.33 3.836-3.226 0-5.751-.955-7.576-2.865-1.825-1.91-2.74-4.147-2.74-6.71 0-1.778.444-3.41 1.331-4.906.888-1.493 2.127-2.668 3.718-3.524 1.591-.854 3.369-1.28 5.336-1.28 1.821 0 3.456.362 4.906 1.087a9.34 9.34 0 0 1 3.558 3.094l-3.833 2.103Zm19.712 12.523v-8.04c0-2.123-.102-3.562-.305-4.317-.203-.752-.549-1.314-1.036-1.686-.488-.373-1.094-.556-1.811-.556-.935 0-1.734.308-2.401.928-.67.62-1.134 1.463-1.391 2.53-.136.55-.204 1.81-.204 3.774v7.367h-4.57V30.051h4.567v8.935c.9-.775 1.805-1.357 2.715-1.743a6.97 6.97 0 0 1 2.763-.583c1.822 0 3.355.63 4.605 1.89 1.066 1.09 1.6 2.691 1.6 4.804v12.12h-4.532Z" fill="#333"/><path fill-rule="evenodd" clip-rule="evenodd" d="M4.388 70.785c-.25.301-.6.504-1.043.606-.325.074-.931.115-1.818.115h-.508v3.233H.305v-6.954h1.422c.816 0 1.367.034 1.652.105.41.098.741.298 1.002.603.257.305.39.687.39 1.144 0 .464-.13.847-.383 1.148ZM3.836 69a1.069 1.069 0 0 0-.511-.413c-.214-.082-.559-.122-1.043-.122H1.019v2.36l1.209.013c.487 0 .846-.044 1.073-.129.227-.088.406-.226.535-.42.129-.192.193-.41.193-.646A1.14 1.14 0 0 0 3.836 69Zm5.81 2.285c-.339.145-.81.22-1.409.223l2.57 3.227h-.884l-2.57-3.23h-.402v3.23h-.715v-6.954h1.422c.793 0 1.33.03 1.612.095.423.094.768.297 1.036.606.264.311.4.694.4 1.147 0 .38-.092.711-.275 1a1.71 1.71 0 0 1-.785.656Zm.125-2.289a1.082 1.082 0 0 0-.511-.41c-.21-.08-.562-.121-1.053-.121h-1.26v2.363l1.233.01c.477 0 .83-.044 1.056-.132.23-.088.406-.23.535-.423.129-.193.193-.41.193-.65a1.062 1.062 0 0 0-.193-.637Zm8.586 4.852c-.728.707-1.615 1.063-2.661 1.063-1.06 0-1.954-.352-2.682-1.06-.727-.704-1.093-1.56-1.093-2.563 0-.667.166-1.286.498-1.858a3.583 3.583 0 0 1 1.357-1.341 3.744 3.744 0 0 1 1.862-.484c1.084 0 1.988.352 2.719 1.053.728.7 1.094 1.567 1.094 2.593s-.366 1.89-1.094 2.597Zm-.044-4.09a2.906 2.906 0 0 0-1.117-1.07 3.094 3.094 0 0 0-1.527-.403c-.528 0-1.03.136-1.503.403a2.926 2.926 0 0 0-1.51 2.6c0 .826.294 1.524.883 2.093.59.568 1.297.853 2.13.853a3.14 3.14 0 0 0 1.54-.393c.47-.26.84-.62 1.104-1.073.264-.454.396-.958.396-1.514a2.83 2.83 0 0 0-.396-1.496Zm5.45 4.225a1.432 1.432 0 0 1-.575.677c-.267.17-.596.254-.975.254-.288 0-.572-.054-.853-.162-.28-.109-.589-.302-.931-.576l.38-.552c.372.254.683.437.93.539.163.07.322.105.478.105.203 0 .389-.061.555-.18a.903.903 0 0 0 .349-.477c.067-.2.101-.582.101-1.155V67.79h.714v4.692c0 .718-.057 1.222-.172 1.503Zm2.631-5.518v2.18h3.352v.68h-3.351v2.733h3.351v.68h-4.063v-6.954h4.097v.68h-3.386Zm9.589.135a3.358 3.358 0 0 0-1.436-.305 3.24 3.24 0 0 0-1.584.4 2.928 2.928 0 0 0-1.131 1.073c-.268.45-.4.955-.4 1.513 0 .847.298 1.555.898 2.123.599.566 1.35.85 2.261.85 1.002 0 1.839-.382 2.512-1.144l.562.416c-.355.44-.799.782-1.334 1.023a4.286 4.286 0 0 1-1.784.362c-1.25 0-2.234-.406-2.959-1.216-.606-.683-.907-1.51-.907-2.478 0-1.019.365-1.875 1.1-2.57.735-.694 1.652-1.042 2.756-1.042.667 0 1.27.128 1.808.386.538.257.978.616 1.32 1.08l-.562.42a3.094 3.094 0 0 0-1.12-.89Zm4.73-.135v6.273h-.729v-6.273H38.39v-.68h3.914v.68h-1.592ZM4.232 81.537c.108.23.16.481.16.752 0 .549-.2 1.016-.603 1.395-.403.38-.942.572-1.619.572H.291v-6.849h1.351c.542 0 .962.064 1.253.193.291.129.521.328.69.593.17.267.254.561.254.886 0 .305-.074.583-.223.833-.149.251-.366.454-.653.606.355.122.63.264.822.427.193.166.342.362.447.593Zm-1.1-2.454c0-.311-.109-.559-.329-.738-.22-.18-.568-.268-1.046-.268H.962v2.194h.392c.478 0 .826-.044 1.05-.132a1.127 1.127 0 0 0 .728-1.056Zm.254 2.424c-.2-.227-.47-.383-.82-.464-.233-.054-.64-.084-1.218-.084H.962v2.627h.85c.5 0 .866-.047 1.1-.146.233-.098.42-.25.562-.457a1.17 1.17 0 0 0 .213-.674c0-.308-.101-.575-.301-.802Zm6.74 1.517c-.118.376-.358.704-.717.985-.36.281-.792.42-1.3.42-.552 0-1.026-.132-1.419-.396a1.925 1.925 0 0 1-.792-1.046c-.085-.268-.125-.749-.125-1.443V77.41h.684v4.134c0 .491.01.796.027.918.033.27.111.494.237.677.125.183.314.335.572.457.257.122.518.183.778.183.227 0 .444-.048.65-.142.21-.095.383-.23.522-.4s.24-.376.308-.62c.047-.172.071-.531.071-1.07v-4.133h.684v4.134c0 .606-.06 1.1-.18 1.476Zm1.768 1.232v-6.849h.684v6.85h-.684Zm2.251 0v-6.849h.684v6.186h2.634v.66h-3.318v.003Zm9.727-1.53c-.298.521-.68.907-1.154 1.154-.474.248-1.138.373-1.99.373H18.55v-6.85h1.419c1.022 0 1.767.082 2.23.248a3.001 3.001 0 0 1 1.558 1.209c.376.575.562 1.259.562 2.051-.003.69-.149 1.297-.447 1.815Zm-.728-3.49a2.406 2.406 0 0 0-1.337-.962c-.43-.129-1.134-.197-2.116-.197h-.484v5.533h.792c.945 0 1.602-.058 1.97-.177.515-.165.921-.47 1.216-.904.295-.436.444-.968.444-1.597-.007-.664-.166-1.23-.485-1.697Zm2.4 5.02v-6.849h.685v6.85h-.684Zm7.487 0-4.52-5.187v5.187h-.708v-6.849h.149l4.557 5.248v-5.248h.677v6.85h-.155Zm6.642-6.05a3.388 3.388 0 0 0-1.33-.291c-.539 0-1.05.132-1.534.396a2.872 2.872 0 0 0-1.127 1.073c-.268.45-.4.928-.4 1.432 0 .515.139 1.006.413 1.47.274.464.657.83 1.144 1.093a3.311 3.311 0 0 0 1.602.396c.704 0 1.3-.196 1.787-.595.488-.4.776-.915.867-1.548h-2.184v-.66h2.953c-.007 1.06-.322 1.9-.941 2.522-.623.623-1.456.935-2.5.935-1.265 0-2.267-.433-3.006-1.293a3.437 3.437 0 0 1-.853-2.306c0-.647.163-1.253.488-1.811a3.462 3.462 0 0 1 1.34-1.31c.57-.316 1.21-.475 1.927-.475a4.28 4.28 0 0 1 1.639.315c.51.21 1.012.545 1.5 1.01l-.532.5a4 4 0 0 0-1.253-.853ZM5.322 87.56a3.498 3.498 0 0 0-1.384-.304c-.56 0-1.09.139-1.599.413a2.99 2.99 0 0 0-1.174 1.117c-.278.47-.417.965-.417 1.49 0 .535.142 1.046.43 1.527.288.484.684.863 1.192 1.138a3.414 3.414 0 0 0 1.666.412c.731 0 1.354-.206 1.862-.62.508-.412.806-.947.9-1.607H4.527v-.688h3.07c-.006 1.104-.331 1.978-.981 2.624-.647.647-1.514.972-2.6.972-1.318 0-2.36-.45-3.129-1.348A3.57 3.57 0 0 1 0 90.29c0-.673.17-1.303.508-1.885a3.601 3.601 0 0 1 1.395-1.365c.592-.328 1.26-.49 2.004-.49.606 0 1.171.108 1.706.324.532.217 1.053.57 1.561 1.05l-.552.525a4.076 4.076 0 0 0-1.3-.887Zm7.076 2.757c-.338.149-.809.226-1.405.23l2.563 3.308h-.88l-2.563-3.308H9.71v3.308H9v-7.127h1.418c.792 0 1.327.03 1.608.098.423.098.768.305 1.033.623.264.318.396.71.396 1.178 0 .39-.092.728-.275 1.023a1.722 1.722 0 0 1-.782.667Zm.126-2.347a1.075 1.075 0 0 0-.508-.42c-.21-.084-.559-.125-1.05-.125H9.71v2.421l1.226.01c.477 0 .826-.044 1.056-.135a1.11 1.11 0 0 0 .535-.434 1.2 1.2 0 0 0 .193-.667c0-.237-.068-.453-.197-.65Zm8.562 4.974c-.725.728-1.612 1.09-2.654 1.09-1.057 0-1.95-.362-2.675-1.087-.728-.724-1.09-1.598-1.09-2.627 0-.684.165-1.32.497-1.903a3.616 3.616 0 0 1 1.355-1.374 3.636 3.636 0 0 1 1.855-.495c1.08 0 1.984.36 2.709 1.08.727.722 1.09 1.609 1.09 2.662.003 1.042-.36 1.93-1.087 2.654Zm-.044-4.192a2.937 2.937 0 0 0-1.114-1.096 3.012 3.012 0 0 0-1.524-.414c-.528 0-1.025.14-1.5.413-.473.275-.84.647-1.107 1.11a3.1 3.1 0 0 0-.4 1.558c0 .847.296 1.561.881 2.147a2.9 2.9 0 0 0 2.123.873c.552 0 1.067-.135 1.537-.403.47-.267.836-.636 1.1-1.1a3.08 3.08 0 0 0 .397-1.55 2.978 2.978 0 0 0-.393-1.538Zm7.12 3.823c-.125.392-.373.734-.745 1.026-.372.29-.823.436-1.354.436-.576 0-1.067-.138-1.48-.413a1.979 1.979 0 0 1-.822-1.09c-.088-.278-.133-.779-.133-1.503v-4.303h.712v4.303c0 .511.01.83.03.955.037.28.118.514.247.704.129.19.328.349.596.474.267.129.538.19.81.19.236 0 .46-.051.676-.15a1.54 1.54 0 0 0 .542-.416c.146-.18.25-.393.318-.643.048-.183.071-.552.071-1.114v-4.303h.711v4.303c.007.636-.057 1.151-.18 1.544Zm6.01-2.773c-.251.308-.6.515-1.043.623-.322.078-.928.115-1.812.115h-.508v3.315h-.71v-7.127h1.418c.813 0 1.365.034 1.649.105.406.101.738.308.999.616.257.311.386.704.386 1.175-.004.477-.13.87-.38 1.178Zm-.552-1.828a1.071 1.071 0 0 0-.512-.424c-.213-.084-.558-.125-1.04-.125H30.81v2.418l1.206.016c.487 0 .843-.043 1.07-.131.226-.089.402-.234.531-.43.129-.2.193-.42.193-.664.004-.244-.06-.46-.19-.66Z" fill="#4F4F4F"/></svg><svg fill="none" viewBox="0 0 24 24" id="menu" xmlns="http://www.w3.org/2000/svg"><g stroke="#333" stroke-width="2" stroke-linecap="round" stroke-linejoin="round"><path d="M21 10H7M21 6H3M21 14H3M21 18H7"/></g></svg><svg fill="none" viewBox="0 0 50 50" id="service-1" xmlns="http://www.w3.org/2000/svg"><g fill="#77B82A" clip-path="url(#ia)"><path d="m24.307.283-.284.283v10.372H13.701l-.244.244a1.35 1.35 0 0 0-.313.546c-.107.538-.068 10.167.04 10.557.214.772 1.113 1.026 1.67.479l.283-.284V12.892H28.32V16.68l-1.865.039-1.865.029-.283.322c-.4.44-.4.996 0 1.397l.283.283h3.73V22.148l-1.865.04-1.865.029-.283.322c-.4.44-.4.996 0 1.396l.283.284h3.73v3.399l-1.865.038-1.865.03-.283.322c-.4.44-.4.996 0 1.396l.283.284h3.73v3.398l-1.865.039-1.865.03-.283.322c-.4.439-.4.996 0 1.396l.283.283h3.73v3.399l-1.865.039-1.865.029-.283.322c-.4.44-.4.996 0 1.397l.283.283h3.73V44.023l-1.865.04-1.865.029-.283.322c-.4.44-.4.996 0 1.396l.283.284h3.73V48.047h-4.883V29.619l-.253-.264-.264-.253H2.47l-.264.253-.254.264v18.428H1.23c-.644 0-.742.03-.976.254-.361.37-.361 1.074 0 1.445L.518 50h48.964l.264-.254c.361-.371.361-1.074 0-1.445-.234-.225-.332-.254-.977-.254h-.722V22.783l-.244-.244a1.347 1.347 0 0 0-.547-.312c-.176-.03-1.309-.059-2.54-.059H42.48v-6.191c0-3.399-.029-6.329-.058-6.495a1.224 1.224 0 0 0-.274-.507c-.107-.108-3.925-2.168-8.486-4.58C24.551-.44 24.892-.293 24.307.283Zm10.488 7.041 5.625 2.979.01 5.927v5.938h-2.871c-1.573 0-2.998.03-3.174.059-.166.039-.41.175-.547.312l-.244.244V48.047H30.372V11.484l-.265-.273-.263-.274h-3.77V2.726l1.543.81c.85.45 4.072 2.149 7.178 3.79Zm11.299 18.604v1.709h-2.578c-1.416 0-2.706.029-2.881.058-.772.157-1.084 1.143-.528 1.72l.264.273H46.094v3.418h-2.578c-1.416 0-2.706.029-2.881.058-.498.098-.791.479-.791 1.006 0 .38.049.508.273.723l.274.263H46.094v3.418h-2.578c-1.416 0-2.706.03-2.881.059-.772.156-1.084 1.142-.528 1.719l.264.273H46.094v3.418l-1.485.01c-1.787 0-2.1.088-2.363.605-.156.322-.166.44-.068.752.185.635.361.684 2.256.684h1.66V48.047H35.547V24.219h10.547v1.709ZM21.484 39.55v8.496H3.906V31.055h17.578v8.496Z"/><path d="M32.871 11.29c-.254.253-.254.282-.254 1.62v1.367l.283.284c.225.224.372.283.694.283.322 0 .468-.059.693-.284l.283-.283V12.91c0-1.338 0-1.367-.254-1.62-.205-.206-.351-.255-.722-.255s-.518.049-.723.254ZM36.777 11.29c-.254.253-.254.282-.254 1.62v1.367l.284.284c.224.224.37.283.693.283.322 0 .469-.059.693-.284l.284-.283V12.91c0-1.338 0-1.367-.254-1.62-.205-.206-.352-.255-.723-.255s-.518.049-.723.254ZM33.33 16.768c-.117.02-.322.156-.459.293-.254.244-.254.273-.254 1.709 0 1.406.01 1.464.235 1.689.127.127.351.264.488.303.351.088.713-.03.996-.303.224-.225.234-.283.234-1.69 0-1.445 0-1.464-.254-1.718-.146-.137-.312-.254-.39-.254-.069 0-.176-.02-.254-.04a1.029 1.029 0 0 0-.342.01ZM37.236 16.768c-.117.02-.322.156-.459.293-.254.244-.254.273-.254 1.709 0 1.406.01 1.464.235 1.689.283.274.644.39.996.303a1.39 1.39 0 0 0 .488-.303c.225-.225.235-.283.235-1.69 0-1.445 0-1.464-.254-1.718-.147-.137-.313-.254-.391-.254-.068 0-.176-.02-.254-.04a1.029 1.029 0 0 0-.342.01ZM38.408 44.16c-.723.186-.957 1.114-.43 1.65.391.381 1.036.401 1.407.04.771-.782.078-1.973-.977-1.69ZM6.416 33.115c-.4.235-.459.567-.459 2.676 0 2.93-.146 2.774 2.803 2.783h2.178l.312-.283.322-.283.03-1.934c.039-2.217.01-2.46-.342-2.812l-.254-.254H8.799c-1.319 0-2.276.049-2.383.107Zm3.154 2.676v.732H8.008V35.06H9.57v.732ZM14.238 33.252c-.332.332-.37.586-.37 2.53 0 1.845.077 2.294.458 2.597.234.186.381.195 2.412.195 2.95-.01 2.793.157 2.793-2.88v-2.12l-.283-.283-.283-.283H14.482l-.244.244Zm3.242 2.539v.732h-1.562V35.06h1.562v.732ZM6.387 40.703c-.4.313-.43.518-.43 2.607 0 2.93-.156 2.774 2.842 2.784h2.207l.244-.244c.332-.332.371-.586.371-2.54 0-1.953-.039-2.207-.371-2.538l-.244-.245H8.799c-1.944 0-2.237.03-2.412.176ZM9.57 43.31v.733H8.008V42.578H9.57v.732ZM14.326 40.723c-.38.302-.459.752-.459 2.597 0 1.944.04 2.198.371 2.53l.244.244H18.965l.283-.284.283-.283v-4.394l-.283-.303-.283-.303h-2.197c-2.061 0-2.208.01-2.442.196Zm3.154 2.587v.733h-1.562V42.578h1.562v.732ZM13.604 25.098c-.733.44-.528 1.601.322 1.816.615.156 1.21-.322 1.21-.977-.009-.85-.81-1.289-1.532-.84Z"/></g><defs><clipPath id="ia"><path fill="#fff" d="M0 0h50v50H0z"/></clipPath></defs></svg><svg fill="none" viewBox="0 0 50 50" id="service-2" xmlns="http://www.w3.org/2000/svg"><g fill="#77B82A" clip-path="url(#ja)"><path d="M24.61.928c-3.487.781-6.153 3.29-7.15 6.748-.194.674-.224.986-.224 2.48s.03 1.807.225 2.48c.732 2.54 2.354 4.571 4.658 5.84l.488.274h-2.51c-2.392 0-2.529.01-2.714.195-.186.186-.195.323-.195 2.735v2.539h-2.774l-2.91 2.9-2.9 2.9-.586-.556c-.518-.498-.625-.557-1.006-.557h-.42l-2.9 2.91-2.91 2.9v.88l6.816 6.806 6.806 6.817h.88l2.9-2.91 2.91-2.9v-.42c0-.382-.059-.489-.557-1.007l-.556-.585 1.552-1.553 1.563-1.563h11.699l.4-.42c3.711-3.896 13.34-14.13 13.516-14.365.547-.742.645-2.1.224-2.998-.273-.576-.878-1.182-1.455-1.465-.36-.176-.634-.224-1.24-.234-1.435 0-1.22-.166-6.025 4.629l-4.278 4.248v-4.268c0-4.14-.01-4.277-.195-4.463-.185-.185-.322-.195-2.705-.195h-2.52l.518-.283c2.275-1.26 3.897-3.301 4.63-5.83.194-.674.224-.987.224-2.48 0-1.495-.03-1.807-.225-2.481-.937-3.242-3.35-5.664-6.572-6.612-.947-.273-3.506-.351-4.483-.136Zm3.857 1.709c.273.068.928.332 1.465.586 1.67.81 2.744 1.884 3.564 3.564.576 1.201.781 2.07.781 3.398 0 2.999-1.699 5.665-4.443 6.963-1.123.528-2.021.723-3.3.723a7.613 7.613 0 0 1-6.866-4.248c-.586-1.191-.82-2.168-.82-3.438 0-1.328.205-2.197.78-3.398.821-1.68 1.895-2.754 3.565-3.564.537-.254 1.201-.518 1.465-.586 1.113-.274 2.676-.274 3.809 0Zm5.908 18.457v.781H18.75V20.312h15.625v.782Zm12.275-.684c.069 0 .274.137.47.303.41.361.575.869.439 1.367-.078.264-1.66 2.002-6.856 7.49l-6.748 7.149H22.227l-1.739 1.728-1.738 1.738-4.473-4.472-4.463-4.463 2.735-2.734 2.734-2.735 6.592.02c6.445.03 6.602.03 6.934.234 1.044.615 1.044 2.002 0 2.617-.323.196-.538.205-3.497.254-2.988.05-3.164.059-3.3.235-.205.283-.176.898.058 1.132.196.196.323.196 6.856.196h6.67l4.98-4.98c3.281-3.282 5.088-5.02 5.274-5.079.166-.049.38-.068.488-.049.107.03.244.05.312.05ZM34.375 24.22V25h-2.041c-1.924 0-2.05-.01-2.295-.205-.146-.117-.479-.293-.752-.39-.45-.177-.82-.186-5.508-.186H18.75v-.782h15.625v.782Zm0 3.515v1.172h-1.709c-.937 0-1.709-.02-1.709-.039 0-.02.068-.224.146-.449.079-.225.147-.742.147-1.133v-.723h3.125v1.172Zm-21.29 9.229 6.007 6.006-2.13 2.119-2.118 2.129-6.026-6.026-6.035-6.035 2.1-2.1c1.152-1.152 2.119-2.099 2.148-2.099.03 0 2.754 2.705 6.055 6.006Z"/><path d="M25.977 4.883c-.157.156-.196.322-.196.781v.586h-.293c-.693 0-1.523.596-1.865 1.318-.244.528-.244 1.524 0 2.051.098.215.332.527.508.703.527.498.928.616 2.09.616 1.513 0 1.963.263 1.767 1.035-.117.44-.537.527-2.45.527-1.583 0-1.73.02-1.905.195-.127.127-.195.323-.195.586 0 .664.214.781 1.367.781h.976v.586c0 .733.196.977.782.977.585 0 .78-.244.78-.977v-.585h.294c.693 0 1.523-.596 1.865-1.319.117-.254.186-.615.186-1.025 0-.752-.215-1.27-.694-1.729-.527-.498-.928-.615-2.09-.615-1.513 0-1.963-.264-1.767-1.035.117-.44.537-.527 2.45-.527 1.583 0 1.73-.02 1.905-.196.127-.127.195-.322.195-.586 0-.664-.214-.781-1.367-.781h-.976v-.586c0-.732-.196-.976-.782-.976-.263 0-.459.068-.585.195Z"/></g><defs><clipPath id="ja"><path fill="#fff" d="M0 0h50v50H0z"/></clipPath></defs></svg><svg fill="none" viewBox="0 0 50 50" id="service-3" xmlns="http://www.w3.org/2000/svg"><g fill="#77B82A" clip-path="url(#ka)"><path d="M38.477.059c-.723.136-1.827.459-2.168.634-.489.254-.723.743-.567 1.192.264.771.703.879 1.973.488.82-.244 1.045-.273 2.324-.273 1.514 0 2.002.087 3.174.605 1.748.762 3.29 2.285 4.053 3.994.888 1.973.918 4.317.078 6.358-.157.39-.322.713-.352.713-.039 0-.146-.186-.254-.4-.097-.225-.44-.675-.752-1.007-.586-.625-1.2-1.025-1.923-1.24-.323-.098-.4-.156-.352-.273.352-.801.42-1.192.43-2.315 0-1.377-.196-2.1-.772-2.87-.85-1.124-1.914-1.661-3.33-1.661-1.191 0-2.11.371-2.92 1.182-.898.908-1.181 1.699-1.181 3.359.01 1.123.078 1.504.43 2.305.048.117-.03.185-.352.273a5.845 5.845 0 0 0-.81.322c-.567.293-1.544 1.28-1.817 1.836-.127.264-.264.479-.303.489-.03 0-.195-.323-.352-.713-.752-1.817-.81-3.702-.205-5.733.225-.752.176-1.074-.224-1.416-.508-.43-1.28-.254-1.573.362-.81 1.728-.888 4.775-.185 6.865.117.322.176.615.137.644-.118.098-8.74 4.688-8.76 4.659-.01-.02-.235-.313-.498-.665a11.986 11.986 0 0 0-7.754-4.6c-1.27-.185-3.535-.068-4.727.245-1.064.283-2.226.742-2.715 1.074-.439.293-.615.83-.43 1.28.138.322.577.634.89.634.087 0 .644-.205 1.25-.449 1.386-.576 2.538-.82 3.886-.82 4.785 0 8.819 3.252 9.776 7.91.156.752.185 1.181.146 2.295-.049 1.543-.264 2.5-.781 3.603l-.322.684-.284-.586c-.43-.84-1.572-1.973-2.46-2.412-.391-.186-.958-.4-1.25-.469-.303-.068-.528-.146-.518-.176.02-.029.146-.293.303-.566.38-.733.556-1.592.556-2.774 0-1.308-.117-1.914-.527-2.793-.791-1.67-2.666-2.851-4.512-2.86-2.314-.01-4.375 1.6-4.97 3.876-.196.733-.186 2.617 0 3.428a5.9 5.9 0 0 0 .41 1.123c.156.273.283.537.302.566.01.03-.215.108-.517.176-.293.069-.86.283-1.25.469-.88.44-2.031 1.572-2.451 2.412l-.284.566-.175-.322C2.45 28.232 2.05 26.436 2.05 25c0-1.572.254-2.666 1.025-4.482.235-.557.254-.674.156-1.006-.136-.45-.488-.703-.957-.684-.507.02-.771.235-1.103.899-1.348 2.675-1.563 6.396-.527 9.296 1.328 3.721 4.443 6.553 8.31 7.559 1.182.313 3.447.43 4.717.244a12.269 12.269 0 0 0 4.97-1.933c.928-.625 2.413-2.061 2.94-2.842.186-.283.371-.498.4-.479.04.01 2.022 1.075 4.424 2.354 3.496 1.875 4.346 2.373 4.297 2.49-.478 1.104-.732 2.988-.605 4.58.322 4.092 3.31 7.617 7.402 8.73.723.196 1.055.225 2.54.225 1.483 0 1.816-.03 2.538-.224 2.227-.616 4.307-2.041 5.615-3.868.567-.8 1.26-2.265 1.534-3.242.175-.654.214-1.035.214-2.53.01-1.542-.02-1.855-.214-2.587-.313-1.133-.577-1.582-.996-1.719a1.1 1.1 0 0 0-1.114.254c-.273.264-.254.8.069 1.992.439 1.621.351 3.301-.274 4.942-.254.664-.41.957-.459.879-.02-.03-.117-.225-.225-.44-.468-.928-1.65-1.904-2.666-2.207-.322-.098-.4-.156-.351-.273.352-.801.42-1.192.43-2.315 0-1.377-.196-2.1-.772-2.87-.85-1.124-1.914-1.661-3.33-1.661-1.191 0-2.11.371-2.92 1.182-.898.908-1.181 1.699-1.181 3.359.01 1.113.078 1.504.43 2.305.048.117-.05.185-.45.312-1.016.322-2.1 1.23-2.54 2.13-.126.263-.253.468-.292.478-.117 0-.664-1.436-.81-2.149-.206-.996-.186-2.51.048-3.496.674-2.822 2.774-4.97 5.713-5.85.45-.136.928-.175 2.002-.175 1.28 0 1.504.029 2.324.273 1.045.322 1.358.293 1.729-.146.43-.508.273-1.23-.352-1.543-.195-.108-.722-.293-1.172-.41-.722-.196-1.035-.225-2.578-.215-1.494 0-1.875.039-2.53.215-.976.273-2.44.966-3.241 1.533-.684.488-1.846 1.62-2.207 2.158-.127.185-.264.332-.303.332-.068 0-8.643-4.56-8.75-4.648-.02-.02.059-.284.166-.596.488-1.348.703-2.588.703-4.063 0-1.63-.185-2.773-.703-4.199-.107-.312-.186-.576-.166-.596.107-.087 8.701-4.648 8.76-4.648.039 0 .175.156.303.352.136.195.537.644.898 1.015 2.129 2.149 4.932 3.164 8.047 2.91 4.219-.341 7.724-3.369 8.799-7.597.146-.586.185-1.065.175-2.442 0-1.562-.029-1.787-.273-2.588-.527-1.767-1.338-3.154-2.53-4.326-.966-.967-1.6-1.426-2.753-1.972-1.475-.723-2.236-.89-4.102-.928-.86-.02-1.67-.01-1.806.01Zm2.666 6.318c.195.146.478.43.625.625.263.342.273.4.273 1.494 0 1.074-.01 1.162-.264 1.543a2.09 2.09 0 0 1-3.476 0c-.235-.361-.264-.508-.293-1.406-.04-1.104.068-1.475.576-1.983.459-.459.85-.605 1.563-.576.527.03.712.088.996.303Zm-1.934 6.563c.742.175 1.328.146 2.168-.108.469-.147.557-.147 1.22.01 1.68.41 2.49 1.201 2.598 2.549l.05.605-.704.488c-1.357.957-2.842 1.407-4.6 1.397a8.015 8.015 0 0 1-4.629-1.533l-.478-.352.049-.605c.058-.733.322-1.27.86-1.758.439-.4.624-.488 1.562-.752.683-.186.86-.186 1.904.059Zm-25.986 6.435c.615.303 1.162.87 1.464 1.514.176.38.206.625.206 1.718 0 1.485-.137 1.895-.85 2.608-.645.654-1.24.898-2.129.908-.625 0-.82-.049-1.299-.293a3.17 3.17 0 0 1-1.465-1.504c-.283-.615-.351-2.295-.127-3.056.528-1.817 2.52-2.715 4.2-1.895Zm-2.881 8.574c1.054.371 2.48.322 3.496-.117l.41-.176 1.152.313c.635.166 1.387.44 1.67.595 1.035.557 1.758 1.67 1.846 2.823l.049.605-.664.547c-1.27 1.026-2.383 1.611-3.897 2.05-.683.196-.996.226-2.49.226-1.484 0-1.807-.03-2.48-.225-1.553-.45-2.871-1.153-4.043-2.149l-.528-.459.05-.595c.087-1.104.702-2.11 1.698-2.744.547-.342 2.793-1.036 3.057-.938.078.03.38.147.674.244Zm30.8 8.506c.196.147.48.43.626.625.263.342.273.4.273 1.494 0 1.074-.01 1.162-.264 1.543a2.09 2.09 0 0 1-3.476 0c-.235-.361-.264-.508-.293-1.406-.04-1.104.068-1.475.576-1.983.459-.459.85-.605 1.563-.576.527.03.712.088.996.303Zm-1.933 6.563c.742.175 1.328.146 2.168-.108.469-.146.557-.146 1.22.01.977.244 1.29.38 1.749.8.527.48.79 1.016.85 1.749l.048.596-.644.458c-2.647 1.885-6.348 1.924-9.014.079l-.674-.47.01-.624c.01-.762.234-1.27.82-1.797.44-.4.625-.488 1.563-.752.683-.186.86-.186 1.904.059Z"/><path d="M33.428 2.617c-.479.078-.84.694-.733 1.24.137.733 1.133.997 1.69.45.693-.703.049-1.856-.957-1.69ZM3.73 16.357c-.38.166-.634.674-.546 1.114.156.79 1.132 1.074 1.709.508.78-.791-.137-2.07-1.163-1.622ZM46.123 32.685c-.703.137-.967 1.163-.43 1.7.235.224.372.283.723.283.8 0 1.23-.771.84-1.523-.166-.323-.703-.538-1.133-.46Z"/></g><defs><clipPath id="ka"><path fill="#fff" d="M0 0h50v50H0z"/></clipPath></defs></svg><svg fill="none" viewBox="0 0 50 50" id="service-4" xmlns="http://www.w3.org/2000/svg"><g fill="#77B82A" clip-path="url(#la)"><path d="M.254.254 0 .518V17.06l.254.263.264.254h9.511l.264-.254c.234-.244.254-.322.254-1.074v-.82h.45c.37 0 .585.088 1.171.449l.723.45v4.267c0 4.258 0 4.258.234 4.746.244.537.742 1.025 1.309 1.289.332.156.879.176 5.927.205 3.067.02 5.762 0 5.996-.03.596-.087.89-.42.89-1.025 0-.361-.05-.498-.255-.693l-.254-.235-3.799-.048-3.808-.05-.215-.634c-.303-.889-.693-1.523-1.348-2.158-.595-.596-1.718-1.22-2.353-1.319l-.371-.068v-1.592c0-.879.02-1.601.039-1.601.02 0 .322.127.664.293 1.015.459 2.803 1.035 4.004 1.308 2.148.479 5.088.957 5.654.918.518-.039.567-.02.713.215.078.147.459.547.83.908 1.094 1.036 2.373 1.534 3.916 1.534 4.336 0 7.12-4.6 5.098-8.438-1.758-3.35-6.27-4.121-9.024-1.533l-.634.596-2.305-1.28c-1.27-.693-2.393-1.386-2.51-1.523-.4-.518-.107-1.309.566-1.494.264-.069 3.594-.088 10.372-.078l9.98.029.166.537c.557 1.748 1.777 2.969 3.525 3.525l.537.166.03 3.76.02 3.75-.372.069c-.576.087-1.66.673-2.265 1.21-.625.567-1.133 1.358-1.436 2.256l-.215.645-3.808.049-3.8.049-.253.234c-.205.195-.254.332-.254.693 0 .606.293.938.889 1.026.234.029 2.94.049 5.996.029 5.049-.03 5.596-.049 5.928-.205.566-.264 1.064-.752 1.308-1.29l.234-.488v-8.056c0-7.89-.01-8.067-.205-8.496-.263-.586-.625-.957-1.21-1.23l-.489-.235H33.154l-2.588-2.002c-2.9-2.236-3.427-2.578-4.54-2.959l-.782-.264-7.344-.029-7.353-.03v-.517c0-.43-.04-.566-.254-.781L10.029 0H.518L.254.254Zm8.34 8.535v6.836h-6.64V1.953h6.64V8.79ZM25.098 3.75c.918.303 1.465.635 3.047 1.855l1.543 1.182-4.278.049c-4.2.049-4.277.049-4.678.273-.644.342-1.074.772-1.367 1.368-.361.742-.38 1.855-.049 2.617.381.83.85 1.181 3.73 2.773 1.476.82 2.784 1.572 2.901 1.68.293.273.45.79.381 1.21-.088.43-.635.987-1.064 1.065-.45.088-4.688-.664-6.172-1.093a22.017 22.017 0 0 1-5.889-2.666l-.908-.586h-1.749V3.506l7.013.03c6.445.038 7.04.048 7.539.214ZM46.26 9.004c.127.127.175.39.205 1.055l.049.888-.381-.156a3.038 3.038 0 0 1-1.65-1.65l-.157-.371.88.029c.673.03.917.078 1.054.205Zm-14.541 4.258a3.947 3.947 0 0 1 2.383 2.129c.185.39.224.644.224 1.406 0 .8-.039 1.006-.264 1.484a4.024 4.024 0 0 1-1.826 1.866c-.586.283-.722.312-1.572.312-.85 0-.986-.03-1.572-.313a4.223 4.223 0 0 1-1.094-.8l-.45-.489.333-.546c.625-1.045.683-2.237.166-3.291l-.274-.567.293-.273c1.065-.987 2.364-1.319 3.653-.918Zm-15.957 9.873c.468.322.879.82 1.093 1.328l.137.342h-.82c-1.172 0-1.27-.098-1.309-1.26l-.039-.889.264.098c.137.058.45.224.674.38Zm30.673 1.064c-.087.488-.38.615-1.298.586l-.791-.03.185-.41c.235-.527.899-1.19 1.465-1.474l.44-.215.029.606c.02.341 0 .761-.03.937Z"/><path d="M40.137 16.084c-.557.498-.362 1.484.332 1.67.761.215 1.328-.195 1.328-.957 0-.41-.04-.508-.303-.723-.42-.351-.957-.351-1.357.01ZM29.99 25.059c-.254.214-.302.322-.302.683 0 .547.214.889.644 1.006.44.117.957-.03 1.152-.332.088-.127.157-.43.157-.674 0-.361-.05-.469-.303-.683a1.014 1.014 0 0 0-1.348 0ZM34.463 32.334c-2.451.205-4.62 1.367-6.397 3.418l-.84.967h-2.851c-2.969 0-3.73.068-4.385.41-.547.273-1.162.879-1.455 1.416-.303.557-.508 1.553-.41 2.05.059.323.049.352-.117.284-.742-.273-1.475-.908-4.238-3.633-3.555-3.516-3.545-3.506-5.079-3.506-.888 0-1.093.03-1.513.244-.625.303-1.309.987-1.612 1.612-.214.43-.244.625-.244 1.513 0 1.534.01 1.543 3.36 4.913 2.92 2.939 3.896 3.837 5.039 4.6 1.435.966 3.408 1.747 5.215 2.05.8.137 2.177.156 10.722.156h9.795v.332c0 .225.078.41.254.586l.264.254h9.511l.264-.254.254-.264V32.94l-.254-.264-.264-.254h-9.511l-.264.254c-.137.146-.254.322-.254.4 0 .108-.049.108-.283-.02-.508-.253-1.973-.634-2.686-.693-.38-.029-.8-.058-.937-.078-.137-.01-.625.01-1.084.049Zm2.744 2.256c.4.097 1.065.342 1.465.547l.732.37.03 5.694.02 5.684-9.737-.04c-6.67-.029-9.922-.077-10.293-.155-1.885-.372-3.701-1.153-5.078-2.168-.83-.616-5.948-5.596-6.64-6.465-.313-.391-.382-.557-.382-.909 0-.859.537-1.406 1.377-1.406.313 0 .537.069.733.215.156.108 1.533 1.445 3.066 2.969 2.91 2.88 3.516 3.369 4.883 3.955.37.156 1.064.38 1.533.508.85.214.957.214 7.285.214h6.436l.283-.322c.176-.205.283-.42.283-.615 0-.361-.225-.82-.459-.928-.097-.048-2.754-.107-5.908-.136-5.596-.05-5.732-.05-5.996-.254-.899-.664-.889-1.72.03-2.344.253-.176.526-.186 3.642-.215 1.855-.01 3.466-.039 3.584-.068.117-.03.605-.518 1.103-1.094 1.094-1.29 1.865-1.963 2.832-2.461 1.65-.86 3.32-1.045 5.176-.576Zm10.84 6.62v6.837h-6.64V34.375h6.64v6.836Z"/></g><defs><clipPath id="la"><path fill="#fff" d="M0 0h50v50H0z"/></clipPath></defs></svg><svg fill="none" viewBox="0 0 24 24" id="window-close" xmlns="http://www.w3.org/2000/svg"><g clip-path="url(#ma)"><path d="M14.503 12 24 21.497V24h-2.503L12 14.503 2.503 24H0v-2.503L9.497 12 0 2.503V0h2.503L12 9.497 21.497 0H24v2.503L14.503 12Z" fill="#fff"/></g><defs><clipPath id="ma"><path fill="#fff" d="M0 0h24v24H0z"/></clipPath></defs></svg></svg>